<svg width="300" height="241" viewBox="0 0 300 241" fill="none" xmlns="http://www.w3.org/2000/svg">
<g clip-path="url(#clip0)">
<path opacity="0.1" d="M99.7377 240.865C114.347 240.865 126.191 238.707 126.191 236.046C126.191 233.385 114.347 231.228 99.7377 231.228C85.1279 231.228 73.2844 233.385 73.2844 236.046C73.2844 238.707 85.1279 240.865 99.7377 240.865Z" fill="#4736B9"/>
<path opacity="0.1" d="M243.534 241C261.765 241 276.544 238.843 276.544 236.182C276.544 233.52 261.765 231.363 243.534 231.363C225.304 231.363 210.525 233.52 210.525 236.182C210.525 238.843 225.304 241 243.534 241Z" fill="#4736B9"/>
<path opacity="0.1" d="M3.75729 104.129H31.3101V146.72H5.77441C5.70654 147.157 5.64138 147.598 5.5708 148.038H31.3101V182.386C31.264 182.371 31.2233 182.353 31.1798 182.334C30.4522 182.008 29.7301 181.663 29.008 181.293L28.5464 181.056C27.8225 180.668 27.0985 180.258 26.3746 179.825C26.1221 179.674 25.8696 179.517 25.6198 179.357C21.6008 176.803 17.9496 173.568 14.7931 169.763C14.7008 169.661 14.6139 169.553 14.5216 169.455C14.0818 168.913 13.6501 168.365 13.2321 167.805L12.7705 167.189C12.2764 166.502 11.7986 165.797 11.3344 165.083C11.2665 164.978 11.2014 164.874 11.1308 164.775C9.24274 161.806 7.67507 158.591 6.46126 155.2C6.42326 155.098 6.39068 154.987 6.35539 154.892C5.98255 153.804 5.65224 152.706 5.36447 151.597C5.23959 151.132 5.12014 150.674 5.01697 150.19C4.97896 150.048 4.94639 149.91 4.91652 149.771C3.3745 142.945 3.1926 135.855 3.1926 128.813C3.1926 127.991 3.1926 127.166 3.1926 126.35C3.1926 123.502 3.22247 120.636 3.2659 117.772C3.2659 117.03 3.29305 116.291 3.30663 115.546C3.34463 113.656 3.39893 111.765 3.46952 109.875C3.48581 109.348 3.50752 108.825 3.53196 108.301C3.53196 108 3.54553 107.698 3.57268 107.396C3.63784 106.3 3.69213 105.213 3.75729 104.129Z" fill="#4736B9"/>
<path opacity="0.1" d="M31.3102 56.7077H16.1967C18.6535 52.3466 21.3378 48.1559 24.2354 44.158C26.4805 41.0298 28.8506 37.9817 31.3102 35.0444V56.7077Z" fill="#4736B9"/>
<path opacity="0.1" d="M31.3102 58.0255V102.812H3.84425C3.84425 102.682 3.86325 102.55 3.87139 102.421C3.89583 102.066 3.92026 101.712 3.94741 101.361C3.97727 100.949 4.00985 100.533 4.04514 100.13C4.08044 99.7265 4.11844 99.2338 4.15917 98.7874C4.19989 98.3409 4.2379 97.8883 4.28405 97.4419C4.3302 96.9954 4.37092 96.549 4.41979 96.1056C4.46866 95.6623 4.5121 95.2127 4.56368 94.7694C4.6044 94.3999 4.64784 94.0335 4.69127 93.6641C4.75371 93.1437 4.81887 92.6203 4.88946 92.103C4.88946 92.0261 4.90846 91.946 4.91932 91.8721C5.41483 88.0855 6.08999 84.332 6.94187 80.6279C7.83358 76.7422 8.97227 72.9349 10.349 69.2358C11.8122 65.3662 13.5254 61.6243 15.4746 58.0408L31.3102 58.0255Z" fill="#4736B9"/>
<path opacity="0.1" d="M37.8882 104.126V146.72H96.7377V104.126H37.8882ZM37.8882 148.035V184.613C38.2248 184.693 38.5588 184.77 38.89 184.834C39.3406 184.933 39.7886 185.022 40.2474 185.099C40.3343 185.114 40.4239 185.13 40.5189 185.139C40.6981 185.173 40.8827 185.201 41.0618 185.228C41.5152 185.299 41.9659 185.358 42.4193 185.404C42.6337 185.428 42.8509 185.45 43.0681 185.468L43.5921 185.515C43.8771 185.539 44.1595 185.558 44.4391 185.567C44.6128 185.567 44.7866 185.585 44.9658 185.592C45.1015 185.592 45.2373 185.592 45.3784 185.592C45.5196 185.592 45.7205 185.592 45.8915 185.592C46.125 185.592 46.3585 185.592 46.5892 185.592H46.9014C47.1349 185.592 47.3684 185.592 47.5992 185.567H47.6154C47.7756 185.567 47.9385 185.567 48.1014 185.542C48.1466 185.545 48.1919 185.545 48.2371 185.542C48.3729 185.542 48.5086 185.542 48.6389 185.521H48.734L49.6434 185.441C49.9421 185.41 50.2434 185.37 50.5475 185.333L51.1665 185.25C53.6847 184.85 56.1749 184.249 58.6187 183.452C64.1081 181.715 69.478 179.286 74.9647 177.506C82.0585 175.213 89.8963 174.086 96.7512 176.891V148.035H37.8882ZM96.7377 56.7077V0.0030821C90.2946 -0.0760844 83.8691 0.778566 77.6171 2.54628C62.7154 6.79212 49.3448 16.0012 37.8882 27.7627V56.7046H40.8419V58.0193H37.8882V102.812H96.7377V58.0224H52.9691V56.7077H96.7377ZM172.327 37.5537C168.64 37.4059 164.975 36.082 161.66 34.0376C155.321 30.1273 150.258 24.0895 144.6 18.9939C132.845 8.38085 118.266 1.97667 103.31 0.387948V56.7077H187.321L187.53 56.4583L172.327 37.5537ZM179.98 36.0142L188.095 46.1131V33.3663C185.377 33.7481 182.996 34.6564 179.991 36.0019L179.98 36.0142ZM188.095 193.695V148.035H170.804C170.758 147.841 170.711 147.644 170.657 147.447C170.709 147.644 170.752 147.841 170.801 148.035H103.321V181.056C103.962 181.595 104.594 182.162 105.222 182.737C105.898 183.353 106.565 184.003 107.236 184.64L107.912 185.274C108.235 185.582 108.561 185.89 108.889 186.18C109.541 186.779 110.199 187.37 110.863 187.953C111.191 188.261 111.528 188.538 111.862 188.828C117.163 193.424 122.756 197.573 128.594 201.239C129.902 202.06 131.222 202.861 132.554 203.643C133.442 204.158 134.335 204.669 135.231 205.164C136.578 205.909 137.935 206.628 139.304 207.32C151.918 213.742 165.258 218.149 178.94 220.414C181.979 220.923 185.03 221.324 188.092 221.615V193.692H188.363L188.095 193.695ZM103.321 58.0224V102.812H188.105V58.0224H103.321ZM103.321 104.126V146.72H188.105V104.126H103.321ZM194.686 33.3109V47.5294L205.043 34.641C201.612 34.0129 198.159 33.5644 194.686 33.2955V33.3109ZM194.686 104.142V146.72H277.149V104.126L194.686 104.142ZM276.848 197.076L277.138 148.035H194.686V222.105C199.998 222.358 205.317 222.286 210.622 221.889H210.715C213.248 221.708 215.77 221.446 218.281 221.101H218.338C231.73 219.333 244.826 215.37 257.214 209.336L276.848 197.076ZM293.05 111.14C292.741 110.312 292.417 109.49 292.089 108.677C291.475 107.137 290.827 105.641 290.159 104.145H283.725V146.72H299.992C299.984 134.663 297.293 122.347 293.058 111.125L293.05 111.14ZM283.725 148.05V190.232C288.307 185.25 292.179 179.551 294.967 173.036C298.32 165.191 299.853 156.696 299.978 148.044L283.725 148.05ZM283.725 91.7305V102.815H289.556C287.792 98.999 285.848 95.2938 283.733 91.7151L283.725 91.7305ZM227.799 41.6671C227.37 41.4824 226.941 41.2946 226.509 41.1129C221.957 39.2062 217.305 37.6206 212.58 36.3652L196.73 56.0919L196.426 56.4583L196.63 56.7108H253.039C245.183 50.5777 236.713 45.5227 227.807 41.6517L227.799 41.6671ZM254.692 58.0378H195.843L194.686 59.2386V102.812H204.823H204.84H277.16V81.7055C270.618 72.7322 263.067 64.7701 254.7 58.0224L254.692 58.0378Z" fill="#4736B9"/>
<path opacity="0.1" d="M31.3102 80.6157V102.812H3.84425C3.84425 102.682 3.86325 102.55 3.87139 102.421C3.89583 102.067 3.92026 101.712 3.94741 101.361C3.97727 100.949 4.00985 100.533 4.04514 100.13C4.08044 99.7266 4.11844 99.234 4.15917 98.7875C4.19989 98.3411 4.2379 97.8885 4.28405 97.442C4.3302 96.9956 4.37092 96.5491 4.41979 96.1058C4.46866 95.6624 4.5121 95.2129 4.56368 94.7695C4.6044 94.4 4.64784 94.0336 4.69127 93.6642C4.75371 93.1438 4.81887 92.6204 4.88946 92.1031C4.88946 92.0262 4.90846 91.9461 4.91932 91.8722C5.41483 88.0856 6.08999 84.3321 6.94187 80.628L31.3102 80.6157Z" fill="#4736B9"/>
<path opacity="0.1" d="M3.75729 104.129H31.3101V146.72H5.77441C5.70654 147.157 5.64138 147.598 5.5708 148.038H31.3101V182.386C31.264 182.371 31.2233 182.353 31.1798 182.334C30.4522 182.008 29.7301 181.663 29.008 181.293L28.5464 181.056C27.8225 180.668 27.0985 180.258 26.3746 179.825C26.1221 179.674 25.8696 179.517 25.6198 179.357C21.6008 176.803 17.9496 173.568 14.7931 169.763C14.7008 169.661 14.6139 169.553 14.5216 169.455C14.0818 168.913 13.6501 168.365 13.2321 167.805L12.7705 167.189C12.2764 166.502 11.7986 165.797 11.3344 165.083C11.2665 164.978 11.2014 164.874 11.1308 164.775C9.24274 161.806 7.67507 158.591 6.46126 155.2C6.42326 155.098 6.39068 154.987 6.35539 154.892C5.98255 153.804 5.65224 152.706 5.36447 151.597C5.23959 151.132 5.12014 150.674 5.01697 150.19C4.97896 150.048 4.94639 149.91 4.91652 149.771C3.3745 142.945 3.1926 135.855 3.1926 128.813C3.1926 127.991 3.1926 127.166 3.1926 126.35C3.1926 123.502 3.22247 120.636 3.2659 117.772C3.2659 117.03 3.29305 116.291 3.30663 115.546C3.34463 113.656 3.39893 111.765 3.46952 109.875C3.48581 109.348 3.50752 108.825 3.53196 108.301C3.53196 108 3.54553 107.698 3.57268 107.396C3.63784 106.3 3.69213 105.213 3.75729 104.129Z" fill="#4736B9"/>
<path opacity="0.1" d="M58.6051 64.4358V102.811H37.8882V64.4358H40.8419V51.4427H52.9664V64.4358H58.6051Z" fill="#4736B9"/>
<path opacity="0.1" d="M58.6051 104.126H37.8909V146.717H58.6051V104.126Z" fill="#4736B9"/>
<path opacity="0.1" d="M37.8882 148.038H58.6051V183.446C56.1613 184.242 53.6711 184.842 51.1529 185.241L50.5339 185.327C50.2298 185.367 49.9285 185.401 49.6299 185.435C49.3312 185.469 49.0217 185.493 48.7204 185.515H48.6254C48.4951 185.515 48.3539 185.533 48.2263 185.536H48.0878C47.9249 185.536 47.7621 185.555 47.5992 185.561C47.3684 185.576 47.1376 185.579 46.9014 185.582C46.801 185.582 46.706 185.582 46.6055 185.582C46.3721 185.582 46.1413 185.582 45.9078 185.582H45.3947C45.2563 185.582 45.1232 185.582 44.9793 185.582L44.4554 185.561C44.1839 185.561 43.8907 185.527 43.6084 185.505L43.0871 185.462L42.4383 185.395C41.9822 185.348 41.5288 185.29 41.0808 185.219L40.5379 185.133L40.2664 185.09C39.813 185.01 39.3651 184.924 38.909 184.825C38.5751 184.76 38.2438 184.68 37.9072 184.603L37.8882 148.038Z" fill="#4736B9"/>
<path opacity="0.1" d="M188.106 59.9036H171.024V102.808H188.106V59.9036Z" fill="#4736B9"/>
<path opacity="0.1" d="M188.108 104.126V146.72H103.321V128.348H148.482V139.186H171.024V104.126H188.108Z" fill="#4736B9"/>
<path opacity="0.1" d="M188.377 193.705H188.105V221.646C185.047 221.352 181.997 220.953 178.956 220.448C165.267 218.175 151.922 213.759 139.303 207.326C135.66 205.466 132.091 203.436 128.596 201.236C122.758 197.568 117.165 193.42 111.862 188.824C110.53 187.667 109.215 186.482 107.917 185.271C107.019 184.431 106.125 183.569 105.221 182.731C104.594 182.156 103.962 181.589 103.321 181.047V148.038H170.798C170.752 147.841 170.706 147.644 170.657 147.45C170.709 147.644 170.757 147.841 170.804 148.038H188.105V193.686C188.198 193.689 188.287 193.698 188.377 193.705Z" fill="#4736B9"/>
<path opacity="0.1" d="M232.656 56.7077H221.525V52.7851H226.515V41.1006C226.947 41.2792 227.378 41.4629 227.807 41.6517V52.7851H232.656V56.7077Z" fill="#4736B9"/>
<path opacity="0.1" d="M259.473 102.812H204.829C204.829 102.812 204.829 102.812 204.848 102.827L204.823 102.812H194.686V59.9067H197.558V91.6196H210.685V72.8382H221.528V58.0255H232.659V72.8505H243.502V91.632H259.473V102.812Z" fill="#4736B9"/>
<path opacity="0.1" d="M194.686 104.126V146.72H259.473V104.126H194.686ZM277.06 196.857L277.149 163.143H259.473V148.056H194.686V222.105C199.998 222.358 205.317 222.286 210.622 221.889H210.715C213.248 221.708 215.77 221.446 218.281 221.101H218.338C231.73 219.333 244.826 215.37 257.214 209.336" fill="#4736B9"/>
<path opacity="0.1" d="M284.876 148.038H299.989C299.856 156.687 298.325 165.181 294.975 173.027C292.187 179.545 288.313 185.244 283.735 190.222V163.128H284.876V148.038Z" fill="#4736B9"/>
<path opacity="0.1" d="M299.997 146.72H284.876V111.125H293.058C297.293 122.347 299.984 134.663 299.997 146.72Z" fill="#4736B9"/>
<path opacity="0.1" d="M188.108 71.8314H178.957V85.2832H188.108V71.8314Z" fill="#4736B9"/>
<path opacity="0.1" d="M188.108 99.7142H178.957V102.812H188.108V99.7142Z" fill="#4736B9"/>
<path opacity="0.1" d="M188.108 104.126H178.957V113.163H188.108V104.126Z" fill="#4736B9"/>
<path opacity="0.1" d="M188.108 127.597H178.957V141.049H188.108V127.597Z" fill="#4736B9"/>
<path opacity="0.1" d="M188.108 155.48H178.957V168.932H188.108V155.48Z" fill="#4736B9"/>
<path opacity="0.1" d="M188.106 193.686C188.198 193.686 188.287 193.686 188.377 193.705H188.106V196.83H178.957V183.362H188.106V193.686Z" fill="#4736B9"/>
<path opacity="0.1" d="M188.106 211.239V221.631C185.047 221.337 181.997 220.938 178.957 220.433V211.239H188.106Z" fill="#4736B9"/>
<path opacity="0.1" d="M142.542 145.732H103.321V146.72H142.542V145.732Z" fill="#4736B9"/>
<path opacity="0.1" d="M142.542 148.035H103.321V151.822H142.542V148.035Z" fill="#4736B9"/>
<path opacity="0.1" d="M142.542 164.236H103.321V170.326H142.542V164.236Z" fill="#4736B9"/>
<path opacity="0.1" d="M142.539 182.741V188.831H111.862C110.53 187.677 109.214 186.493 107.914 185.278C107.016 184.437 106.125 183.575 105.219 182.741H142.539Z" fill="#4736B9"/>
<path opacity="0.1" d="M142.54 201.242V207.326H139.301C135.661 205.464 132.093 203.433 128.596 201.233L142.54 201.242Z" fill="#4736B9"/>
<path opacity="0.1" d="M218.346 108.255H210.625V117.012H218.346V108.255Z" fill="#4736B9"/>
<path opacity="0.1" d="M51.1719 67.4563H43.4509V76.2128H51.1719V67.4563Z" fill="#4736B9"/>
<path opacity="0.1" d="M51.1719 87.7955H43.4509V96.552H51.1719V87.7955Z" fill="#4736B9"/>
<path opacity="0.1" d="M51.1719 108.135H43.4509V116.892H51.1719V108.135Z" fill="#4736B9"/>
<path opacity="0.1" d="M51.1719 128.471H43.4509V137.228H51.1719V128.471Z" fill="#4736B9"/>
<path opacity="0.1" d="M51.1719 148.811H43.4509V157.567H51.1719V148.811Z" fill="#4736B9"/>
<path opacity="0.1" d="M51.1719 169.15H43.4509V177.907H51.1719V169.15Z" fill="#4736B9"/>
<path opacity="0.1" d="M247.821 108.255H240.1V117.012H247.821V108.255Z" fill="#4736B9"/>
<path opacity="0.1" d="M218.346 129.854H210.625V138.61H218.346V129.854Z" fill="#4736B9"/>
<path opacity="0.1" d="M247.821 129.854H240.1V138.61H247.821V129.854Z" fill="#4736B9"/>
<path opacity="0.1" d="M218.346 151.449H210.625V160.206H218.346V151.449Z" fill="#4736B9"/>
<path opacity="0.1" d="M247.821 151.449H240.1V160.206H247.821V151.449Z" fill="#4736B9"/>
<path opacity="0.1" d="M218.346 173.048H210.625V181.805H218.346V173.048Z" fill="#4736B9"/>
<path opacity="0.1" d="M247.821 173.048H240.1V181.805H247.821V173.048Z" fill="#4736B9"/>
<path opacity="0.1" d="M218.346 194.647H210.625V203.403H218.346V194.647Z" fill="#4736B9"/>
<path opacity="0.1" d="M247.821 194.647H240.1V203.403H247.821V194.647Z" fill="#4736B9"/>
<path opacity="0.1" d="M210.625 221.889V216.242H218.343V221.085L210.625 221.889Z" fill="#4736B9"/>
<path opacity="0.1" d="M4.8867 91.866V96.8754H31.3102V91.866H4.8867ZM7.52008 96.5613H5.36451V92.1739H7.53637L7.52008 96.5613ZM10.1508 96.5613H7.97889V92.1739H10.1508V96.5613ZM12.776 96.5613H10.6041V92.1739H12.776V96.5613ZM15.4067 96.5613H13.2375V92.1739H15.4094L15.4067 96.5613ZM18.0346 96.5613H15.8628V92.1739H18.0346V96.5613ZM20.6653 96.5613H18.4934V92.1739H20.6653V96.5613ZM23.296 96.5613H21.1241V92.1739H23.296V96.5613ZM25.9239 96.5613H23.7521V92.1739H25.9239V96.5613ZM28.5519 96.5613H26.38V92.1739H28.5519V96.5613ZM31.1798 96.5613H29.008V92.1739H31.1798V96.5613Z" fill="#4736B9"/>
<path opacity="0.1" d="M4.8867 106.442V111.451H31.3102V106.442H4.8867ZM7.52008 111.134H5.36451V106.759H7.53637L7.52008 111.134ZM10.1508 111.134H7.97889V106.759H10.1508V111.134ZM12.776 111.134H10.6041V106.759H12.776V111.134ZM15.4067 111.134H13.2375V106.759H15.4094L15.4067 111.134ZM18.0346 111.134H15.8628V106.759H18.0346V111.134ZM20.6653 111.134H18.4934V106.759H20.6653V111.134ZM23.296 111.134H21.1241V106.759H23.296V111.134ZM25.9239 111.134H23.7521V106.759H25.9239V111.134ZM28.5519 111.134H26.38V106.759H28.5519V111.134ZM31.1798 111.134H29.008V106.759H31.1798V111.134Z" fill="#4736B9"/>
<path opacity="0.1" d="M4.8867 121.023V126.042H31.3102V121.023H4.8867ZM7.52008 125.716H5.36451V121.337H7.53637L7.52008 125.716ZM10.1508 125.716H7.97889V121.337H10.1508V125.716ZM12.776 125.716H10.6041V121.337H12.776V125.716ZM15.4067 125.716H13.2375V121.337H15.4094L15.4067 125.716ZM18.0346 125.716H15.8628V121.337H18.0346V125.716ZM20.6653 125.716H18.4934V121.337H20.6653V125.716ZM23.296 125.716H21.1241V121.337H23.296V125.716ZM25.9239 125.716H23.7521V121.337H25.9239V125.716ZM28.5519 125.716H26.38V121.337H28.5519V125.716ZM31.1798 125.716H29.008V121.337H31.1798V125.716Z" fill="#4736B9"/>
<path opacity="0.1" d="M4.8867 135.605V140.608H31.3102V135.605H4.8867ZM7.52008 140.297H5.36451V135.916H7.53637L7.52008 140.297ZM10.1508 140.297H7.97889V135.916H10.1508V140.297ZM12.776 140.297H10.6041V135.916H12.776V140.297ZM15.4067 140.297H13.2375V135.916H15.4094L15.4067 140.297ZM18.0346 140.297H15.8628V135.916H18.0346V140.297ZM20.6653 140.297H18.4934V135.916H20.6653V140.297ZM23.296 140.297H21.1241V135.916H23.296V140.297ZM25.9239 140.297H23.7521V135.916H25.9239V140.297ZM28.5519 140.297H26.38V135.916H28.5519V140.297ZM31.1798 140.297H29.008V135.916H31.1798V140.297Z" fill="#4736B9"/>
<path opacity="0.1" d="M5.00082 150.184C5.1067 150.655 5.22615 151.126 5.35104 151.591V150.498H7.5229V154.876H6.36095C6.39625 154.978 6.43154 155.089 6.46683 155.184H31.3103V150.184H5.00082ZM10.159 154.876H7.98714V150.498H10.159V154.876ZM12.7842 154.876H10.6124V150.498H12.7842V154.876ZM15.4149 154.876H13.2376V150.498H15.4095L15.4149 154.876ZM18.0429 154.876H15.871V150.498H18.0429V154.876ZM20.6736 154.876H18.5017V150.498H20.6736V154.876ZM23.3042 154.876H21.1324V150.498H23.3042V154.876ZM25.9322 154.876H23.7603V150.498H25.9322V154.876ZM28.5601 154.876H26.3883V150.498H28.5601V154.876ZM31.1881 154.876H29.0162V150.498H31.1881V154.876Z" fill="#4736B9"/>
<path opacity="0.1" d="M11.1362 164.766C11.2041 164.864 11.2692 164.975 11.3398 165.074H12.7759V167.177C12.9307 167.386 13.0827 167.595 13.2402 167.792V165.061H15.412V169.455H14.5324C14.6193 169.557 14.7035 169.664 14.8039 169.763H31.3183V164.766H11.1362ZM18.0346 169.455H15.8627V165.08H18.0346V169.455ZM20.6653 169.455H18.4934V165.08H20.6653V169.455ZM23.2959 169.455H21.1241V165.08H23.2959V169.455ZM25.9239 169.455H23.752V165.08H25.9239V169.455ZM28.5518 169.455H26.38V165.08H28.5518V169.455ZM31.1798 169.455H29.0079V165.08H31.1798V169.455Z" fill="#4736B9"/>
<path opacity="0.1" d="M25.6308 179.344C25.8778 179.505 26.1303 179.652 26.3855 179.812V179.659H28.5574V181.044L29.0189 181.287V179.659H31.1908V182.322C31.2324 182.345 31.2761 182.364 31.3211 182.377V179.344H25.6308Z" fill="#4736B9"/>
<path opacity="0.1" d="M204.829 102.812H204.845H204.829ZM188.105 193.683H188.377H188.105ZM170.657 147.447C170.709 147.644 170.752 147.841 170.801 148.035C170.758 147.841 170.712 147.644 170.657 147.447ZM204.829 102.802H204.845H204.829ZM40.8529 56.6984V58.0131H52.98V56.6984H40.8529ZM188.105 193.683H188.377H188.105ZM170.657 147.447C170.709 147.644 170.752 147.841 170.801 148.035C170.758 147.841 170.712 147.644 170.657 147.447ZM204.829 102.802H204.845H204.829ZM188.105 193.674H188.377H188.105ZM170.657 147.447C170.709 147.644 170.752 147.841 170.801 148.035C170.758 147.841 170.712 147.644 170.657 147.447Z" fill="#4736B9"/>
<path d="M125.317 116.898C125.317 116.898 124.247 116.728 124.247 114.961C124.247 113.194 123.482 109.893 123.482 109.893C123.482 109.878 122.819 104.145 121.904 103.233C120.989 102.322 119.814 96.9708 119.814 96.9708C119.814 96.9708 119.613 94.0674 119.203 93.4424C118.793 92.8174 118.239 91.2871 117.422 89.1042C116.605 86.9212 113.198 85.4095 113.198 85.4095C113.198 85.4095 107.038 81.3576 105.292 80.0367C105.133 79.9282 104.985 79.8013 104.85 79.658C104.546 79.2054 103.221 79.1962 103.221 79.1962C103.082 78.2048 102.949 77.0656 102.906 76.0341C102.906 75.9233 102.906 75.8124 102.892 75.7016C104.839 74.3967 106.305 72.3393 107.021 69.9071C107.054 69.7901 107.081 69.6669 107.111 69.5499C107.228 69.5063 107.335 69.4356 107.426 69.3423C107.517 69.249 107.59 69.1351 107.64 69.008C107.798 68.6108 107.801 68.1459 107.996 67.7764C108.224 67.3392 108.659 67.1052 109.001 66.7758C109.864 65.9445 110.087 64.5436 110.046 63.2689C110.019 62.2374 109.872 61.1968 109.929 60.1715L109.945 59.9129C109.962 59.7589 109.981 59.605 110.005 59.4572C110.138 58.6936 110.429 57.9731 110.591 57.2157C110.754 56.4583 110.771 55.6054 110.391 54.9527C109.834 53.9952 108.675 53.8043 107.657 53.7057C106.503 53.5949 105.471 53.7396 104.733 52.6527C104.387 52.0847 103.998 51.5521 103.571 51.0609C103.419 50.9008 101.942 49.8786 101.942 49.8109C100.501 49.0538 98.8668 48.9116 97.3404 49.4106C96.5748 49.6631 95.8527 50.0757 95.0762 50.282C93.4012 50.7315 91.4736 50.245 90.0511 51.3319C89.2583 51.9477 88.7832 52.9268 88.338 53.8812C87.976 54.6674 87.6086 55.4525 87.2358 56.2366C86.6358 57.5267 86.025 58.8383 85.7725 60.2669C85.7194 60.5778 85.6867 60.8927 85.6747 61.2091V61.2245C85.6747 61.3384 85.6747 61.4523 85.6747 61.5662V61.711C85.6747 61.8187 85.6747 61.9234 85.691 62.0188C85.7073 62.1143 85.7046 62.1451 85.7128 62.2097C85.7209 62.2744 85.7345 62.4191 85.7508 62.5176C85.7671 62.6162 85.7996 62.7886 85.8322 62.9241C85.8458 62.9825 85.8648 63.038 85.8811 63.0934C85.9082 63.1981 85.9408 63.2997 85.9761 63.4013C85.9951 63.4536 86.0141 63.509 86.0358 63.5614C86.0765 63.6692 86.1254 63.7738 86.1743 63.8693C86.196 63.9124 86.2123 63.9524 86.234 63.9924C86.3097 64.1356 86.3932 64.2734 86.4838 64.405C87.0647 65.2271 87.9199 65.7505 88.5525 66.5202C88.5525 66.551 88.5525 66.5818 88.5525 66.6095C88.5525 66.6957 88.5525 66.7789 88.5525 66.8651C88.586 68.5817 88.9889 70.2631 89.7261 71.7629C90.4632 73.2627 91.5124 74.5356 92.7822 75.4707C92.7822 75.5877 92.7958 75.7078 92.8012 75.8248C92.8541 76.7387 92.8441 77.6559 92.7713 78.5681C92.6608 78.4204 92.5224 78.3028 92.3664 78.2239C92.2104 78.1451 92.0407 78.1069 91.87 78.1124C91.7534 78.1059 91.6365 78.1173 91.5225 78.1463L91.4981 78.1247V78.1524C90.9008 78.3187 90.1651 79.0238 89.4619 81.0281C89.4619 81.0281 87.3227 83.7622 85.6938 83.6483C84.0649 83.5344 79.941 86.4932 79.941 86.4932C79.941 86.4932 75.9176 89.4552 75.0543 92.4725C74.5718 94.1835 73.9932 95.8578 73.3223 97.485L68.3487 109.108L67.4311 118.329C67.4311 118.329 67.9387 122.43 67.8383 123.056C67.7378 123.681 69.926 129.318 69.926 129.318C69.926 129.318 77.1556 143.724 80.1093 144.463L80.3211 144.294C80.4475 144.369 80.5815 144.426 80.7202 144.463L81.3283 143.977C81.3648 144.519 81.3493 145.064 81.2821 145.603C80.8749 147.025 81.4342 156.308 82.1455 158.128C82.8568 159.947 82.6043 183.806 82.6043 183.806L82.5038 185.912C82.5038 185.912 82.5038 185.98 82.5283 186.097L82.5038 186.595L82.5771 186.638C82.6532 187.306 82.6285 187.984 82.5038 188.643C82.2486 189.566 82.1455 192.177 82.1455 192.177C82.1455 192.177 80.1121 206.919 81.0758 209.881C82.0396 212.843 82.8595 216.088 82.8595 216.088C82.8595 216.088 83.8775 219.783 82.9083 220.414C81.9391 221.045 79.1836 222.105 79.751 223.644C80.2668 225.067 82.2242 228.878 82.5147 229.436L82.4902 229.728L82.0912 234.633C82.1558 235.28 82.3107 235.912 82.55 236.505C82.9871 237.573 83.8368 238.682 85.4521 238.561C85.7236 238.54 86.0385 238.503 86.3426 238.457C89.299 238.007 92.9396 236.511 92.9396 236.511C92.7506 236.375 92.5774 236.212 92.4238 236.028C92.2785 235.868 92.1634 235.676 92.0854 235.465C92.0075 235.253 91.9684 235.025 91.9704 234.796C92.0139 233.903 90.5397 229.648 90.1732 228.601C90.1162 228.45 90.0864 228.364 90.0864 228.364C90.0864 228.364 93.4473 224.38 92.8881 220.848C92.8881 220.848 89.1687 218.385 90.3931 217.034C91.6175 215.682 93.8057 211.799 93.8057 211.799C93.8057 211.799 93.9061 197.282 93.8057 195.115C93.7009 193.61 93.7638 192.097 93.993 190.61C94.0337 190.385 94.0826 190.167 94.1342 189.951C95.8275 190.238 97.5369 190.385 99.2489 190.392C99.8733 190.392 100.509 190.392 101.149 190.349C101.149 190.554 101.157 190.775 101.174 191.014C101.315 194.61 101.578 200.915 101.793 203.258C102.097 206.618 103.777 215.67 103.777 215.67C103.777 215.67 100.571 218.003 104.337 223.755C104.337 223.755 104.337 225.839 104.087 226.141C103.82 227.127 103.605 228.131 103.443 229.146C103.286 230.23 103.221 231.326 103.476 231.896C104.087 233.256 107.752 233.146 107.752 233.146L107.841 233.127C108.533 233.046 109.233 233.122 109.898 233.349C110.564 233.577 111.184 233.953 111.721 234.454C113.114 235.723 118.399 235.165 121.261 234.762C122.382 234.602 123.131 234.454 123.131 234.454C123.168 234.31 123.181 234.16 123.169 234.011C123.139 233.213 122.588 231.465 118.853 229.904C118.853 229.904 115.34 227.225 115.389 224.891H115.315H114.908C115.204 224.873 115.394 224.891 115.394 224.891C115.394 224.891 114.018 219.195 114.58 218.733C115.142 218.271 113.458 211.96 113.458 211.96C113.458 211.96 112.495 201.368 112.443 200.626C112.445 199.989 112.53 199.356 112.695 198.748L112.443 192.941C112.443 192.941 112.394 191.011 112.443 190.382C112.435 189.837 112.396 189.293 112.326 188.754C112.302 188.538 112.277 188.313 112.25 188.092C113.567 187.713 114.422 187.362 114.422 187.362L114.27 167.149C115.389 164.686 115.595 159.282 115.59 155.449C115.59 152.986 115.492 151.163 115.492 151.163L117.02 148.334C117.02 148.334 117.373 144.947 116.814 144.205C116.567 143.869 116.678 143.521 116.882 143.235C116.988 143.14 117.099 143.053 117.216 142.976C117.216 142.976 117.199 142.948 117.18 142.908C117.287 142.807 117.401 142.716 117.52 142.634C117.52 142.634 116.977 141.68 117.463 141.277C117.919 141.628 118.326 141.892 118.636 142.108C118.614 142.333 118.592 142.462 118.592 142.462L118.722 142.154C119.021 142.345 119.203 142.462 119.203 142.462C119.203 142.462 121.597 137.052 121.546 136.255C121.494 135.457 123.175 132.098 123.175 132.098C123.175 132.098 123.378 130.334 124.296 129.595C125.214 128.856 125.007 123.502 125.007 123.502C125.007 123.502 125.262 120.712 125.873 119.573C126.484 118.434 125.317 116.898 125.317 116.898ZM79.5012 114.524L79.5474 115.814C79.2759 115.318 79.0804 114.961 79.0804 114.961L79.5012 114.524Z" fill="url(#paint0_linear)"/>
<path d="M119.333 140.125L118.747 142.958C118.747 142.958 114.05 140.239 113.203 136.784C112.356 133.33 114.62 132.018 114.62 132.018L118.997 134.121L119.333 140.125Z" fill="white"/>
<path opacity="0.1" d="M119.333 140.125L118.747 142.958C118.747 142.958 114.05 140.239 113.203 136.784C112.356 133.33 114.62 132.018 114.62 132.018L118.997 134.121L119.333 140.125Z" fill="black"/>
<path d="M92.9748 236.529C92.9748 236.529 88.631 238.34 85.6447 238.568C84.0592 238.688 83.2258 237.585 82.7969 236.523C82.5625 235.933 82.4114 235.304 82.3489 234.66L82.7371 229.78L82.9435 227.182L89.288 225.313L90.1866 228.429L90.2708 228.666C90.6319 229.706 92.0789 233.94 92.0354 234.824C92.0337 235.05 92.0722 235.274 92.1487 235.483C92.2252 235.692 92.3381 235.881 92.4807 236.04C92.6263 236.226 92.7924 236.391 92.9748 236.529Z" fill="white"/>
<path d="M122.645 234.048C122.656 234.196 122.643 234.345 122.607 234.488C122.607 234.488 113.317 236.246 111.417 234.488C110.881 233.974 110.257 233.594 109.583 233.37C108.91 233.146 108.203 233.084 107.508 233.189C107.508 233.189 103.913 233.3 103.313 231.957C103.063 231.394 103.128 230.301 103.283 229.223C103.441 228.213 103.651 227.215 103.913 226.233L104.057 226.104L104.912 225.325L114.924 224.99H115C114.952 227.311 118.399 229.974 118.399 229.974C122.062 231.514 122.602 233.253 122.645 234.048Z" fill="white"/>
<path opacity="0.1" d="M122.645 234.048C122.655 234.196 122.641 234.345 122.605 234.488C122.605 234.488 113.317 236.246 111.417 234.488C110.881 233.975 110.257 233.594 109.585 233.37C108.912 233.147 108.205 233.085 107.51 233.189C107.51 233.189 103.913 233.3 103.316 231.957C103.066 231.391 103.128 230.301 103.283 229.223C104.668 229.38 106.853 229.771 107.711 230.704C109.009 232.123 111.208 233.54 112.557 233.651C113.613 233.728 119.931 233.955 122.645 234.048Z" fill="black"/>
<path opacity="0.1" d="M92.975 236.53C92.975 236.53 88.6313 238.34 85.6449 238.568C84.0595 238.688 83.226 237.586 82.7998 236.52C83.9047 236.942 85.4386 237.386 86.2449 236.979C87.2005 236.499 90.5887 236.188 92.489 236.055C92.6337 236.235 92.7968 236.394 92.975 236.53Z" fill="black"/>
<path d="M99.4198 90.6344C95.8362 89.0549 91.2264 83.8361 92.3775 81.3976C92.6332 80.7822 92.7851 80.1181 92.8255 79.4394C92.8995 78.5181 92.9104 77.5916 92.8581 76.6684C92.7774 75.1563 92.6169 73.6511 92.3775 72.1608C92.3775 72.1608 103.565 72.4472 102.914 74.3161C102.724 74.8641 102.694 75.8155 102.746 76.8808C102.797 77.9461 102.933 79.15 103.074 80.1691C103.269 81.5669 103.465 82.6322 103.465 82.6322C103.465 82.6322 102.781 83.7191 102.379 83.7776C101.977 83.8361 104.562 92.8851 99.4198 90.6344Z" fill="#CF6F80"/>
<path opacity="0.1" d="M90.2629 228.666L90.1788 228.77C86.8341 224.183 82.789 229.9 82.789 229.9L82.7292 229.78L82.9356 227.182L89.2801 225.313L90.1788 228.429L90.2629 228.666Z" fill="black"/>
<path opacity="0.1" d="M115.003 225.313C115.003 225.313 112.56 225.255 111.257 226.56C109.954 227.865 103.655 226.843 103.927 226.56C104.007 226.42 104.056 226.259 104.068 226.092L104.923 225.313L114.935 224.977C114.973 225.184 115.003 225.313 115.003 225.313Z" fill="black"/>
<path d="M94.4248 189.286C94.2428 189.797 94.1046 190.326 94.0121 190.866C93.7857 192.345 93.7228 193.851 93.8248 195.349C93.9253 197.504 93.8248 211.947 93.8248 211.947C93.8248 211.947 91.6774 215.799 90.4801 217.157C89.2829 218.515 92.9235 220.953 92.9235 220.953C93.4664 224.463 90.1761 228.429 90.1761 228.429C86.8314 223.841 82.7863 229.562 82.7863 229.562C82.7863 229.562 80.5873 225.251 80.0389 223.712C79.4905 222.172 82.1863 221.107 83.1338 220.482C84.0813 219.857 83.0876 216.172 83.0876 216.172C83.0876 216.172 82.2868 212.942 81.3366 209.995C80.3864 207.049 82.3845 192.381 82.3845 192.381C82.3845 192.381 82.4877 189.776 82.7347 188.868C82.8594 188.212 82.8842 187.537 82.808 186.872C82.7917 186.648 82.7727 186.46 82.7591 186.334C82.7456 186.207 82.7347 186.149 82.7347 186.149L82.7727 186.075L84.1301 183.205C84.1301 183.205 95.0763 187.479 94.4248 189.286Z" fill="#4736B9"/>
<path d="M115.003 224.974C115.003 224.974 112.56 224.916 111.257 226.206C109.954 227.496 103.655 226.489 103.927 226.206C104.198 225.923 104.176 223.826 104.176 223.826C100.482 218.105 103.633 215.784 103.633 215.784C103.633 215.784 101.983 206.778 101.684 203.437C101.475 201.103 101.217 194.832 101.079 191.251C101.019 189.711 100.984 188.652 100.984 188.652L104.003 187.962L104.391 187.873L111.672 186.217C111.672 186.217 111.873 187.756 112.009 189.015C112.076 189.553 112.114 190.095 112.123 190.638C112.074 191.254 112.123 193.181 112.123 193.181L112.37 198.96C112.208 199.567 112.125 200.196 112.123 200.829C112.172 201.565 113.119 212.101 113.119 212.101C113.119 212.101 114.767 218.388 114.205 218.841C113.643 219.294 115.003 224.974 115.003 224.974Z" fill="#4736B9"/>
<path opacity="0.1" d="M102.914 74.3161C102.724 74.8641 102.694 75.8155 102.746 76.8808C101.247 77.9042 99.5244 78.4275 97.7754 78.3905C96.0263 78.3534 94.322 77.7576 92.8582 76.6714C92.7776 75.1584 92.6171 73.6521 92.3777 72.1608C92.3777 72.1608 103.566 72.441 102.914 74.3161Z" fill="black"/>
<path d="M107.239 67.5117C107.241 68.6212 107.087 69.7239 106.783 70.7784C106.102 73.1411 104.708 75.155 102.845 76.4642C100.982 77.7734 98.7712 78.2936 96.6029 77.9329C94.4346 77.5721 92.4486 76.3537 90.9958 74.4929C89.543 72.6321 88.7171 70.2488 88.6638 67.7641C88.6638 67.6779 88.6638 67.5979 88.6638 67.5117C88.6428 66.1131 88.8675 64.7238 89.3248 63.4247C89.7821 62.1256 90.463 60.9429 91.3276 59.9454C92.1922 58.9479 93.2234 58.1556 94.3608 57.6148C95.4983 57.074 96.7193 56.7955 97.9527 56.7955C99.186 56.7955 100.407 57.074 101.544 57.6148C102.682 58.1556 103.713 58.9479 104.578 59.9454C105.442 60.9429 106.123 62.1256 106.581 63.4247C107.038 64.7238 107.263 66.1131 107.241 67.5117H107.239Z" fill="#CF6F80"/>
<path opacity="0.1" d="M99.4198 90.6345C95.8362 89.055 91.2264 83.8362 92.3775 81.3977C92.6332 80.7823 92.7851 80.1182 92.8255 79.4395L97.7312 84.0117L100.766 86.8351L103.074 80.1722C103.269 81.5701 103.465 82.6354 103.465 82.6354C103.465 82.6354 102.781 83.7222 102.379 83.7807C101.977 83.8392 104.562 92.8852 99.4198 90.6345Z" fill="black"/>
<path d="M112.106 110.841L108.01 188.892L102.667 189.289L88.8321 144.032L91.1017 90.3018L91.5795 78.9498L97.7313 84.6797L100.769 87.5031L103.145 80.6463L107.562 85.0122L112.106 110.841Z" fill="#4736B9"/>
<path opacity="0.1" d="M94.4246 189.286C94.2427 189.797 94.1045 190.326 94.012 190.866C90.1243 190.185 86.3486 188.847 82.8106 186.897L82.7373 186.854L82.7617 186.358L82.7753 186.1L84.1327 183.23C84.1327 183.23 95.0762 187.479 94.4246 189.286Z" fill="black"/>
<path opacity="0.1" d="M104.065 190.878C103.071 191.07 102.069 191.199 101.062 191.266C101.003 189.727 100.967 188.667 100.967 188.667L103.986 187.978L104.065 190.878Z" fill="black"/>
<path opacity="0.1" d="M111.992 189.031C110.062 189.6 107.081 190.241 104.413 189.841L104.375 187.889L111.656 186.232C111.656 186.232 111.857 187.756 111.992 189.031Z" fill="black"/>
<path opacity="0.1" d="M104.364 190.198C93.2328 192.353 83.0386 186.173 83.0386 186.173L83.1363 184.08C83.1363 184.08 83.3888 160.344 82.6884 158.525C81.988 156.705 81.4423 147.478 81.8386 146.061C82.235 144.645 80.3916 123.406 80.3916 123.406L80.093 114.785L69.1631 109.764L74.0498 98.2116C74.7098 96.5919 75.2775 94.9259 75.7493 93.2237C76.599 90.2248 80.5437 87.2783 80.5437 87.2783C80.5437 87.2783 84.5888 84.3348 86.1878 84.4457C87.7868 84.5565 89.8827 81.8409 89.8827 81.8409C91.4301 77.3672 92.831 79.3932 92.831 79.3932C92.831 79.6056 92.831 79.3932 92.755 80.0551C92.212 84.966 101.535 100.484 101.668 100.758L102.556 125.285L103.454 156.323L104.364 190.198Z" fill="black"/>
<path d="M104.065 190.198C92.9341 192.353 82.7372 186.174 82.7372 186.174L82.8376 184.08C82.8376 184.08 83.0901 160.344 82.387 158.525C81.6838 156.705 81.1409 147.478 81.54 146.061C81.939 144.645 80.093 123.407 80.093 123.407L79.7916 114.786L68.8563 109.745L73.743 98.1932C74.4016 96.5729 74.9692 94.907 75.4424 93.2054C76.2895 90.2065 80.2368 87.26 80.2368 87.26C80.2368 87.26 84.2819 84.3165 85.8783 84.4274C87.4746 84.5382 89.5731 81.8226 89.5731 81.8226C91.1233 77.3489 92.8309 79.3748 92.8309 79.3748C92.8309 79.5873 92.668 79.6827 92.7549 80.0368C93.9494 84.7999 101.236 100.466 101.369 100.74L102.268 125.266L103.166 156.305L104.065 190.198Z" fill="white"/>
<path opacity="0.1" d="M101.065 101.438C99.868 100.872 93.5261 92.6603 93.5261 92.6603V90.7914C93.2953 90.1756 91.9243 90.5513 90.8112 90.9823L91.289 79.6303L91.832 80.1414C93.0211 84.9014 100.927 101.164 101.065 101.438Z" fill="black"/>
<path d="M101.367 100.758C100.167 100.191 93.8247 91.9799 93.8247 91.9799V90.111C93.594 89.4952 92.223 89.8709 91.1099 90.3019L91.5904 78.9499L92.1334 79.461C93.3252 84.221 101.234 100.487 101.367 100.758Z" fill="white"/>
<path opacity="0.1" d="M83.0386 141.711C83.1879 141.711 90.7786 140.806 90.7786 140.806C90.7786 140.806 95.3748 151.055 95.0734 153.549C94.7721 156.043 94.2264 158.251 92.3776 157.86C90.5288 157.469 82.4277 158.168 82.4277 158.168L83.0386 141.711Z" fill="black"/>
<path d="M82.7373 141.03C82.8866 141.03 90.4773 140.125 90.4773 140.125C90.4773 140.125 95.0708 150.378 94.7721 152.869C94.4735 155.36 93.9224 157.57 92.0763 157.179C90.2302 156.788 82.1264 157.487 82.1264 157.487L82.7373 141.03Z" fill="white"/>
<path d="M88.4574 136.218C88.4574 136.218 95.4236 140.464 95.573 141.76C95.7223 143.056 92.0274 141.193 91.2292 140.969C90.7039 140.825 90.1691 140.73 89.6302 140.685L84.3064 140.849L88.4574 136.218Z" fill="#CF6F80"/>
<path opacity="0.1" d="M99.1212 101.968C99.526 101.968 99.8542 101.596 99.8542 101.137C99.8542 100.677 99.526 100.305 99.1212 100.305C98.7164 100.305 98.3882 100.677 98.3882 101.137C98.3882 101.596 98.7164 101.968 99.1212 101.968Z" fill="black"/>
<path d="M99.1212 101.629C99.526 101.629 99.8542 101.257 99.8542 100.798C99.8542 100.339 99.526 99.9666 99.1212 99.9666C98.7164 99.9666 98.3882 100.339 98.3882 100.798C98.3882 101.257 98.7164 101.629 99.1212 101.629Z" fill="#3F3D56"/>
<path opacity="0.1" d="M100.471 137.954C100.875 137.954 101.204 137.582 101.204 137.123C101.204 136.664 100.875 136.292 100.471 136.292C100.066 136.292 99.7375 136.664 99.7375 137.123C99.7375 137.582 100.066 137.954 100.471 137.954Z" fill="black"/>
<path d="M100.471 137.613C100.875 137.613 101.204 137.241 101.204 136.781C101.204 136.322 100.875 135.95 100.471 135.95C100.066 135.95 99.7375 136.322 99.7375 136.781C99.7375 137.241 100.066 137.613 100.471 137.613Z" fill="#3F3D56"/>
<path opacity="0.1" d="M99.8516 119.961C100.256 119.961 100.585 119.589 100.585 119.13C100.585 118.671 100.256 118.299 99.8516 118.299C99.4468 118.299 99.1187 118.671 99.1187 119.13C99.1187 119.589 99.4468 119.961 99.8516 119.961Z" fill="black"/>
<path d="M99.8516 119.623C100.256 119.623 100.585 119.25 100.585 118.791C100.585 118.332 100.256 117.96 99.8516 117.96C99.4468 117.96 99.1187 118.332 99.1187 118.791C99.1187 119.25 99.4468 119.623 99.8516 119.623Z" fill="#3F3D56"/>
<path d="M116.749 140.513C116.749 140.513 117.248 141.363 116.749 141.76C116.249 142.157 116.798 143.118 116.798 143.118C116.798 143.118 115.551 143.946 116.1 144.691C116.648 145.436 116.301 148.802 116.301 148.802L114.802 151.616C114.802 151.616 114.892 153.429 114.897 155.88C114.897 159.704 114.699 165.08 113.602 167.531L113.754 187.639C113.754 187.639 108.506 189.813 104.114 189.151L103.462 156.884C103.462 156.884 104.412 138.586 104.763 135.076C104.968 133.253 105.051 131.416 105.012 129.58C105.012 129.58 104.863 124.087 104.361 121.538C104.361 121.538 103.818 110.494 103.764 107.436C103.739 105.974 103.807 101.706 103.883 97.6482C103.967 93.2115 104.062 89.0272 104.062 89.0272L103.071 80.1353C103.071 80.1353 104.062 80.0214 104.361 80.474C104.495 80.6157 104.64 80.7425 104.795 80.8527C106.506 82.1643 112.549 86.1977 112.549 86.1977C112.549 86.1977 115.893 87.7064 116.694 89.8678C117.495 92.0292 118.052 93.5625 118.44 94.1783C118.828 94.7941 119.04 97.6882 119.04 97.6882C119.04 97.6882 120.191 103.015 121.09 103.917C121.988 104.819 122.645 110.558 122.645 110.558L114.704 117.64C114.704 117.64 114.007 129.42 113.857 129.875C113.708 130.331 116.749 140.513 116.749 140.513Z" fill="white"/>
<path d="M117.05 140.513C117.05 140.513 117.547 141.363 117.05 141.76C116.553 142.157 117.096 143.118 117.096 143.118C117.096 143.118 115.858 143.955 116.401 144.7C116.944 145.445 116.602 148.811 116.602 148.811L115.104 151.625C115.104 151.625 115.193 153.438 115.201 155.889C115.201 159.713 115.003 165.089 113.906 167.54L114.056 187.648C114.056 187.648 108.8 189.822 104.413 189.16L103.764 156.893C103.764 156.893 104.714 138.595 105.064 135.085C105.269 133.263 105.352 131.425 105.311 129.589C105.311 129.589 105.162 124.096 104.662 121.547C104.662 121.547 104.119 110.503 104.062 107.445C104.038 105.983 104.108 101.715 104.182 97.6574C104.266 93.2206 104.361 89.0364 104.361 89.0364L103.052 80.0244C103.052 80.0244 104.361 80.0244 104.662 80.4831C104.795 80.6265 104.94 80.7535 105.097 80.8618C106.807 82.1734 112.853 86.2068 112.853 86.2068C112.853 86.2068 116.195 87.7155 116.996 89.8769C117.797 92.0383 118.353 93.5716 118.744 94.1874C119.135 94.8032 119.341 97.6974 119.341 97.6974C119.341 97.6974 120.493 103.024 121.391 103.926C122.29 104.828 122.939 110.555 122.939 110.555L114.998 117.637C114.998 117.637 114.3 129.416 114.148 129.872C113.996 130.328 117.05 140.513 117.05 140.513Z" fill="white"/>
<path opacity="0.1" d="M107.54 91.6505L108.257 94.0212L104.483 98.3317C104.567 93.8981 104.662 89.7108 104.662 89.7108L103.354 80.6987C103.354 80.6987 104.662 80.6987 104.964 81.1575C105.096 81.3005 105.242 81.4265 105.398 81.5331L108.607 92.0323L107.54 91.6505Z" fill="black"/>
<path d="M107.239 90.9699L107.958 93.3407L104.185 97.6512C104.269 93.2145 104.364 89.0302 104.364 89.0302L103.052 80.0182C103.052 80.0182 104.364 80.0182 104.662 80.477C104.795 80.6195 104.941 80.7464 105.097 80.8557L108.308 91.3517L107.239 90.9699Z" fill="white"/>
<path opacity="0.1" d="M107.239 67.5117C107.241 68.6212 107.087 69.724 106.783 70.7784C106.731 70.7875 106.679 70.7848 106.629 70.7705C106.578 70.7563 106.531 70.7307 106.489 70.6953C106.419 67.9242 105.216 65.3226 103.737 63.1088C103.321 62.4404 102.818 61.8485 102.243 61.3538C101.663 60.8594 100.941 60.6278 100.218 60.7042C99.4037 60.8304 98.6843 61.4585 97.8617 61.5385C96.7758 61.6402 95.8039 60.7873 94.7261 60.7442C94.2879 60.7489 93.8557 60.8596 93.4582 61.0687C93.0608 61.2779 92.7072 61.5808 92.4212 61.9573C91.855 62.7169 91.4343 63.6019 91.1859 64.5559C90.7591 66.0025 90.5266 67.5137 90.4964 69.0388C90.4828 69.9009 90.4095 70.9816 89.7036 71.2957C89.7568 70.6617 89.6932 70.022 89.5171 69.4173C89.3409 68.8126 89.0559 68.2559 88.6801 67.7826L88.6638 67.7641C88.6638 67.6779 88.6638 67.5979 88.6638 67.5117C88.6428 66.1131 88.8675 64.7238 89.3248 63.4247C89.7821 62.1257 90.463 60.9429 91.3276 59.9454C92.1922 58.9479 93.2234 58.1556 94.3608 57.6148C95.4983 57.074 96.7193 56.7955 97.9527 56.7955C99.186 56.7955 100.407 57.074 101.544 57.6148C102.682 58.1556 103.713 58.9479 104.578 59.9454C105.442 60.9429 106.123 62.1257 106.581 63.4247C107.038 64.7238 107.263 66.1131 107.241 67.5117H107.239Z" fill="black"/>
<path d="M101.798 50.7838C100.387 50.0312 98.7828 49.8889 97.2861 50.3836C96.534 50.636 95.8255 51.0455 95.0626 51.2518C93.4337 51.6983 91.5333 51.2149 90.1352 52.2956C89.3587 52.9114 88.8918 53.8843 88.4574 54.8295L87.3715 57.1757C86.7796 58.4596 86.1824 59.765 85.9353 61.1783C85.6883 62.5915 85.8376 64.1741 86.6276 65.3102C87.2031 66.1384 88.0529 66.6588 88.6773 67.4377C89.0514 67.9115 89.3351 68.4679 89.5108 69.0719C89.6864 69.6758 89.7502 70.3145 89.6981 70.9477C90.4067 70.6398 90.4745 69.556 90.4908 68.6939C90.5211 67.1688 90.7535 65.6576 91.1804 64.211C91.4282 63.2567 91.8489 62.3717 92.4156 61.6124C92.7019 61.2363 93.0555 60.9336 93.4529 60.7244C93.8503 60.5152 94.2824 60.4044 94.7205 60.3993C95.8065 60.4424 96.7811 61.2922 97.8562 61.1906C98.6706 61.1136 99.3928 60.4824 100.213 60.3593C100.936 60.2817 101.658 60.5134 102.238 61.0089C102.812 61.5028 103.315 62.0949 103.728 62.7639C105.211 64.9777 106.413 67.5732 106.484 70.3504C106.791 70.6059 107.233 70.2734 107.385 69.8793C107.537 69.4852 107.543 69.0234 107.735 68.6477C107.958 68.2136 108.384 67.9827 108.718 67.6563C109.565 66.8281 109.777 65.4333 109.744 64.1679C109.712 62.9025 109.495 61.6186 109.706 60.3747C109.834 59.6111 110.122 58.8968 110.279 58.1425C110.437 57.3881 110.456 56.5414 110.084 55.8918C109.541 54.9373 108.398 54.7495 107.402 54.6602C106.269 54.5494 105.257 54.691 104.535 53.6103C104.196 53.0463 103.814 52.5168 103.394 52.0277C103.251 51.8676 101.798 50.8516 101.798 50.7838Z" fill="#512E4E"/>
<path opacity="0.1" d="M72.2906 115.712L69.4536 109.764L68.555 118.942C68.555 118.942 69.0545 123.019 68.9541 123.644C68.8536 124.269 71.0011 129.872 71.0011 129.872C71.0011 129.872 78.0949 144.202 80.9916 144.941L90.7786 137.009L88.1832 133.271C88.1832 133.271 87.2846 132.874 87.0593 133.271C87.0593 133.271 82.2405 123.868 81.7409 123.188C81.2414 122.507 81.3391 121.15 81.3391 121.15C81.3391 121.15 80.5899 120.244 80.8396 119.395C81.0894 118.545 79.3926 115.598 79.3926 115.598L80.9401 113.957L72.2906 115.712Z" fill="black"/>
<path d="M69.603 109.086L68.8537 109.764L67.9551 118.942C67.9551 118.942 68.4546 123.019 68.3542 123.644C68.2537 124.269 70.4039 129.872 70.4039 129.872C70.4039 129.872 77.495 144.202 80.3917 144.941L90.1814 137.009L87.5833 133.271C87.5833 133.271 86.6847 132.874 86.4594 133.271C86.4594 133.271 81.6406 123.868 81.141 123.188C80.6415 122.507 80.7419 121.15 80.7419 121.15C80.7419 121.15 79.9926 120.244 80.2424 119.395C80.4922 118.545 78.7927 115.598 78.7927 115.598L80.3402 113.957L69.603 109.086Z" fill="white"/>
<path opacity="0.1" d="M116.1 145.042C116.643 145.79 116.301 149.149 116.301 149.149L114.802 151.964C114.802 151.964 114.892 153.78 114.897 156.228L112.378 157.121C112.15 157.201 111.909 157.219 111.674 157.172C111.439 157.126 111.217 157.016 111.027 156.852C110.837 156.689 110.685 156.476 110.582 156.232C110.479 155.988 110.429 155.719 110.437 155.449L110.871 139.558L116.749 142.108C116.249 142.502 116.798 143.469 116.798 143.469C116.798 143.469 115.551 144.294 116.1 145.042Z" fill="black"/>
<path d="M116.401 144.7C116.944 145.449 116.602 148.811 116.602 148.811L115.103 151.625C115.103 151.625 115.193 153.438 115.201 155.889L112.636 156.798C112.413 156.876 112.176 156.893 111.946 156.847C111.716 156.801 111.499 156.694 111.314 156.534C111.128 156.373 110.978 156.165 110.878 155.926C110.777 155.687 110.728 155.424 110.735 155.16L111.172 139.22L117.053 141.769C116.55 142.163 117.099 143.127 117.099 143.127C117.099 143.127 115.858 143.955 116.401 144.7Z" fill="white"/>
<path d="M118.348 137.126C118.348 137.126 117.949 140.017 116.95 140.187C115.951 140.356 115.503 144.864 114.506 144.704C113.51 144.543 114.17 140.513 114.205 139.731C114.24 138.949 113.119 135.71 113.958 134.974C114.797 134.238 117.452 134.974 117.452 134.974L118.348 137.126Z" fill="#CF6F80"/>
<path opacity="0.1" d="M120.473 114.862L122.357 110.552C122.357 110.552 123.107 113.837 123.107 115.592C123.107 117.347 124.155 117.52 124.155 117.52C124.155 117.52 125.303 119.059 124.698 120.18C124.092 121.301 123.848 124.09 123.848 124.09C123.848 124.09 124.046 129.414 123.147 130.149C122.249 130.885 122.062 132.643 122.062 132.643C122.062 132.643 120.411 135.984 120.463 136.778C120.514 137.573 118.166 142.952 118.166 142.952C118.166 142.952 119.314 136.267 112.622 133.379C112.622 133.379 112.571 131.11 113.07 130.488C113.57 129.866 114.349 129.583 113.86 126.439C113.371 123.296 113.719 119.539 113.719 118.785C113.719 118.031 115.217 113.326 115.217 113.326L120.473 114.862Z" fill="black"/>
<path d="M121.288 109.936L122.933 110.552C122.933 110.552 123.685 113.837 123.685 115.592C123.685 117.347 124.733 117.52 124.733 117.52C124.733 117.52 125.881 119.059 125.276 120.18C124.671 121.301 124.429 124.09 124.429 124.09C124.429 124.09 124.627 129.414 123.729 130.149C122.83 130.885 122.629 132.643 122.629 132.643C122.629 132.643 120.981 135.984 121.033 136.778C121.084 137.573 118.733 142.952 118.733 142.952C118.733 142.952 119.884 136.267 113.19 133.379C113.19 133.379 113.141 131.11 113.64 130.488C114.14 129.866 114.919 129.583 114.43 126.439C113.942 123.296 114.289 119.539 114.289 118.785C114.289 118.031 115.788 113.326 115.788 113.326L121.288 109.936Z" fill="white"/>
<path opacity="0.1" d="M84.9498 221.661C84.9498 221.661 87.5724 219.792 89.2936 221.15C91.0148 222.508 84.9498 221.661 84.9498 221.661Z" fill="black"/>
<path opacity="0.1" d="M105.328 215.882C105.328 215.882 107.649 215.543 109.598 217.923C111.547 220.303 105.328 215.882 105.328 215.882Z" fill="black"/>
<g opacity="0.1">
<path opacity="0.1" d="M108.723 66.9821C108.39 67.3084 107.961 67.5424 107.738 67.9766C107.548 68.3491 107.542 68.8079 107.39 69.2081C107.238 69.6084 106.796 69.9348 106.489 69.6823C106.419 66.9113 105.213 64.3096 103.734 62.0927C103.32 61.4237 102.817 60.8317 102.243 60.3378C101.662 59.8423 100.939 59.6107 100.215 59.6881C99.4007 59.8143 98.684 60.4424 97.8614 60.5194C96.7755 60.6241 95.8009 59.7712 94.7231 59.7281C94.2851 59.7331 93.8531 59.8441 93.456 60.0539C93.059 60.2637 92.7061 60.5672 92.4209 60.9443C91.8542 61.7024 91.4334 62.5865 91.1857 63.5398C90.7591 64.9865 90.5266 66.4977 90.4961 68.0228C90.4798 68.8818 90.4092 69.9532 89.7088 70.2734C89.7251 70.5009 89.7251 70.7295 89.7088 70.957C90.4147 70.6491 90.4852 69.5653 90.5015 68.7032C90.5318 67.1781 90.7642 65.6669 91.1911 64.2203C91.4389 63.266 91.8596 62.3809 92.4263 61.6217C92.7121 61.2456 93.0652 60.9429 93.4622 60.7338C93.8591 60.5246 94.2908 60.4137 94.7285 60.4086C95.8145 60.4517 96.7918 61.3015 97.8669 61.1999C98.6813 61.1229 99.4034 60.4917 100.221 60.3685C100.944 60.2911 101.668 60.5228 102.249 61.0182C102.823 61.5121 103.325 62.1042 103.739 62.7732C105.219 64.9869 106.424 67.5825 106.495 70.3597C106.801 70.6152 107.244 70.2827 107.396 69.8886C107.548 69.4945 107.553 69.0326 107.743 68.657C107.966 68.2229 108.395 67.992 108.729 67.6656C109.576 66.8374 109.788 65.4426 109.755 64.1772C109.755 64.1372 109.755 64.0971 109.755 64.0602C109.703 65.1563 109.446 66.2739 108.723 66.9821Z" fill="black"/>
<path opacity="0.1" d="M88.6827 66.7635C88.0583 65.9845 87.2058 65.4642 86.633 64.639C86.1506 63.9085 85.8751 63.0292 85.843 62.1174C85.7575 63.2569 86.0381 64.393 86.633 65.3164C87.2058 66.1446 88.0583 66.6649 88.6827 67.4439C89.2822 68.2059 89.6421 69.1717 89.7062 70.1903C89.7477 69.5704 89.6785 68.9474 89.5026 68.3585C89.3268 67.7697 89.0479 67.2271 88.6827 66.7635Z" fill="black"/>
<path opacity="0.1" d="M110.284 57.4682C110.124 58.2225 109.839 58.9399 109.709 59.7004C109.632 60.2086 109.604 60.7248 109.625 61.2399C109.634 60.9464 109.662 60.6542 109.709 60.3655C109.839 59.6019 110.124 58.8876 110.284 58.1332C110.378 57.7172 110.408 57.2862 110.374 56.8586C110.357 57.064 110.327 57.2677 110.284 57.4682Z" fill="black"/>
</g>
<path opacity="0.1" d="M36.034 234.18C50.6438 234.18 62.4874 232.023 62.4874 229.361C62.4874 226.7 50.6438 224.543 36.034 224.543C21.4243 224.543 9.5807 226.7 9.5807 229.361C9.5807 232.023 21.4243 234.18 36.034 234.18Z" fill="#4736B9"/>
<path d="M36.8865 137.055H35.1843V180.521H36.8865V137.055Z" fill="#535461"/>
<path d="M47.5829 180.388L47.477 182.346L47.3249 185.117L47.2625 186.269L47.1132 189.04L47.048 190.192L46.896 192.963L45.1802 224.389C45.1057 225.741 44.5796 227.01 43.7091 227.938C42.8385 228.866 41.689 229.383 40.4944 229.383H31.5735C30.3792 229.383 29.23 228.866 28.3599 227.938C27.4898 227.01 26.9643 225.741 26.8904 224.389L25.1828 192.941L25.0308 190.17L24.9683 189.018L24.8163 186.247L24.7538 185.096L24.6018 182.325L24.4932 180.367C24.4744 179.99 24.5236 179.612 24.6379 179.258C24.7522 178.903 24.9292 178.579 25.158 178.305C25.3868 178.031 25.6626 177.812 25.9684 177.664C26.2743 177.515 26.6037 177.438 26.9366 177.439H45.1829C45.5145 177.442 45.842 177.522 46.1452 177.674C46.4484 177.827 46.7208 178.048 46.9457 178.324C47.1706 178.601 47.3432 178.927 47.4527 179.281C47.5623 179.636 47.6066 180.013 47.5829 180.388Z" fill="#3F3D56"/>
<path d="M47.477 182.346L47.3249 185.108H24.7429L24.5909 182.346H47.477Z" fill="#9D9CB5"/>
<path d="M47.2625 186.26L47.1132 189.025H24.9574L24.8054 186.26H47.2625Z" fill="#9D9CB5"/>
<path d="M47.048 190.179L46.8987 192.941H25.1719L25.0199 190.179H47.048Z" fill="#9D9CB5"/>
<path d="M21.9924 153.346C31.9043 161.481 36.0417 174.203 36.0417 174.203C36.0417 174.203 24.0964 173.738 14.1818 165.603C4.26725 157.469 0.137985 144.75 0.137985 144.75C0.137985 144.75 12.0778 145.211 21.9924 153.346Z" fill="#4736B9"/>
<path d="M0.12999 144.75C0.12999 144.75 12.5313 152.555 16.5086 159.017C20.4858 165.48 36.0418 174.203 36.0418 174.203" stroke="#535461" stroke-width="2" stroke-miterlimit="10"/>
<path d="M28.3917 136.96C33.786 141.384 36.0421 148.309 36.0421 148.309C36.0421 148.309 29.54 148.056 24.143 143.632C18.7459 139.208 16.4953 132.28 16.4953 132.28C16.4953 132.28 22.9946 132.532 28.3917 136.96Z" fill="#4736B9"/>
<path d="M16.4953 132.28C16.4953 132.28 23.2443 136.529 25.4081 140.045C27.5718 143.561 36.0421 148.309 36.0421 148.309" stroke="#535461" stroke-width="2" stroke-miterlimit="10"/>
<path d="M43.8744 147.958C37.6765 155.683 36.3652 165.779 36.3652 165.779C36.3652 165.779 45.1042 163.346 51.2968 155.618C57.4893 147.89 58.806 137.797 58.806 137.797C58.806 137.797 50.0724 140.233 43.8744 147.958Z" fill="#4736B9"/>
<path d="M58.8114 137.801C58.8114 137.801 50.7375 145.72 48.6851 151.175C46.6327 156.631 36.3652 165.779 36.3652 165.779" stroke="#535461" stroke-width="2" stroke-miterlimit="10"/>
<path d="M271.394 145.239C271.394 145.239 266.912 119.949 268.627 116.802C268.627 116.802 268.69 113.877 268.587 110.149C268.587 110.007 268.587 109.865 268.587 109.721C268.889 109.949 269.203 110.155 269.529 110.336C271.11 111.258 272.925 111.523 274.66 111.088L273.302 109.373C272.977 108.963 272.637 108.52 272.567 107.978C272.496 107.436 272.692 106.953 272.86 106.469C274.149 102.775 274.217 98.1285 271.733 95.3082C269.635 92.9375 269.124 89.877 266.847 87.7125C265.182 86.1269 264.267 83.8023 263.404 81.5547C262.674 79.655 261.938 77.7399 261.52 75.7263C261.194 74.1529 261.064 72.5242 260.616 70.9878C260.168 69.4514 259.329 67.9581 258.018 67.2715C257.551 67.0283 257.032 66.8897 256.606 66.5664C256.047 66.1385 255.71 65.4426 255.306 64.833C253.251 61.7541 246.368 63.5676 243.111 64.8176C242.225 65.1324 241.405 65.6478 240.7 66.3325L240.73 66.277C240.754 66.2308 240.784 66.1847 240.811 66.1385C240.455 66.4655 240.147 66.8553 239.899 67.2931C239.424 68.1459 239.226 69.1404 238.829 70.0641C238.352 71.1571 235.694 74.2084 236.837 75.4368C236.917 75.5193 237.009 75.586 237.108 75.6339C237.537 75.8364 238.01 75.89 238.466 75.7878L238.417 75.9202C238.026 77.0041 237.826 78.164 237.828 79.3348C237.828 84.3934 241.506 88.4946 246.048 88.4946C246.902 88.4955 247.751 88.347 248.565 88.0543C248.584 88.1713 248.6 88.2883 248.619 88.4053C248.619 88.4515 248.633 88.4977 248.638 88.5438L248.494 88.7717C248.487 88.7576 248.479 88.7442 248.47 88.7317L244.207 95.4868C243.556 96.0072 239.804 99.0861 239.592 101.395C239.37 103.923 239.147 106.882 239.147 106.882L239.117 107.516C238.931 107.693 238.713 107.821 238.479 107.893C238.244 107.965 237.999 107.978 237.76 107.932C236.429 107.686 236.429 113.474 236.429 113.474C236.429 113.474 235.544 114.398 234.936 113.597C234.328 112.797 232.721 115.509 232.721 115.509L222.649 116.002L222.418 116.017L221.875 114.111C221.817 113.91 221.691 113.743 221.525 113.647C221.358 113.551 221.165 113.533 220.987 113.597C220.945 113.613 220.905 113.632 220.865 113.656L220.827 113.68L220.757 113.736L220.721 113.773C220.702 113.793 220.684 113.814 220.667 113.837L220.635 113.88L220.618 113.899C220.556 113.997 220.514 114.111 220.497 114.23C220.48 114.35 220.488 114.473 220.521 114.588L220.987 116.223C219.044 116.667 217.056 117.917 218.677 121.359L210.462 119.638L213.12 122.169L226.841 125.38C226.659 125.75 226.778 126.285 227.346 127.04C229.789 130.294 234.241 131.178 236.033 131.406C236.506 132.606 237.097 133.742 237.795 134.792L237.64 138.035C237.64 138.035 233.104 162.746 232.273 163.999C232.692 163.46 233.076 162.887 233.421 162.284C232.105 167.361 230.264 174.31 229.781 175.351C229.004 177.014 228.285 183.741 229.17 184.172C229.441 184.305 230.218 184.24 231.326 184.145V184.702L231.277 205.82C231.277 205.82 231.499 218.773 230.889 220.008C230.278 221.243 230.115 223.832 230.115 223.832C230.115 223.832 227.671 228.94 225.736 230.994C225.723 231.009 225.708 231.024 225.692 231.037L225.633 230.556C225.633 230.556 223.306 233.888 218.159 233.7C218.159 233.7 215.061 235.984 219.655 236.108C224.248 236.231 230.115 235.923 230.115 235.923C230.115 235.923 234.211 228.841 237.643 229.765V235.132H238.694V229.679C239.181 229.315 239.598 228.843 239.919 228.291C240.241 227.739 240.46 227.118 240.564 226.467C240.654 225.796 240.588 225.11 240.373 224.477C240.158 223.844 239.801 223.285 239.337 222.856C239.129 222.642 238.962 222.382 238.846 222.092C238.731 221.801 238.67 221.487 238.667 221.169L238.628 221.206C238.628 221.098 238.604 220.987 238.593 220.873C238.292 218.102 237.914 212.384 239.247 208.154C241.075 202.353 241.628 194.274 240.298 189.465C239.869 187.928 239.516 186.364 239.242 184.782C239.209 184.582 239.18 184.391 239.152 184.212C240.062 184.352 240.962 184.557 241.848 184.828C244.93 185.792 251.671 185.97 257.426 185.918C257.44 186.097 257.456 186.284 257.475 186.472C257.578 187.778 257.792 189.069 258.116 190.327C258.838 192.79 259.169 203.65 259.169 203.65C259.169 203.65 260.1 212.578 259.592 216.212C259.321 218.231 259.049 220.26 258.895 222.299V222.339C258.895 222.339 257.369 227.265 256.253 229.941C256.226 230.008 256.196 230.076 256.169 230.141C255.872 230.171 255.579 230.245 255.298 230.359C255.298 230.359 253.802 233.746 252.311 234.306C250.821 234.867 251.315 236.711 254.689 236.034C258.064 235.356 263.16 234.802 263.16 234.802L263.38 231.348L264.417 229.876L264.145 233.321L265.25 233.075L265.104 228.884L266.8 226.477C266.8 226.477 268.85 224.408 265.804 220.337V220.427C265.771 220.368 265.742 220.307 265.706 220.248V220.23C265.201 219.343 264.8 217.689 265.535 214.755C266.866 209.453 267.639 204.641 267.639 204.641C267.639 204.641 270.609 191.749 267.039 185.65H267.197C266.831 184.792 266.572 183.88 266.428 182.941C266.41 182.83 266.394 182.716 266.38 182.599C269.021 182.427 271.614 181.885 273.729 180.715C273.72 180.702 272.447 150.11 271.394 145.239ZM237.857 123.902V123.964L237.315 123.995L237.857 123.902ZM235.995 124.195C235.906 124.217 235.822 124.262 235.751 124.327C235.517 124.702 235.371 125.137 235.325 125.593L234.478 125.377C234.478 125.377 233.883 125.232 233.028 125.069L232.623 124.607C233.736 124.503 234.893 124.349 235.995 124.195Z" fill="url(#paint1_linear)"/>
<path d="M264.02 228.928L263.697 233.29L264.78 233.044L264.617 228.312L264.02 228.928Z" fill="#1D2366"/>
<path d="M239.307 208.213C238.001 212.431 238.371 218.124 238.664 220.888C238.772 221.911 238.873 222.533 238.873 222.533C238.873 222.533 236.921 227.576 236.758 227.767C236.595 227.958 231.013 231.822 231.013 231.822L227.112 234.405C227.112 234.405 223.154 232.438 225.052 231.76C225.439 231.584 225.789 231.314 226.075 230.969C227.976 228.921 230.362 223.832 230.362 223.832C230.362 223.832 230.525 221.249 231.122 220.02C231.719 218.792 231.502 205.882 231.502 205.882L231.548 184.837V182.094L238.973 182.156C239.02 183.087 239.127 184.013 239.294 184.927C239.56 186.503 239.905 188.062 240.328 189.594C241.637 194.394 241.094 202.433 239.307 208.213Z" fill="#FFB0B1"/>
<path opacity="0.1" d="M238.873 222.533C238.873 222.533 236.921 227.576 236.758 227.767C236.595 227.958 231.013 231.822 231.013 231.822L227.112 234.405C227.112 234.405 223.154 232.438 225.052 231.76C225.439 231.584 225.789 231.314 226.075 230.969L226.244 232.315L227.544 232.253L238.675 220.895C238.772 221.911 238.873 222.533 238.873 222.533Z" fill="black"/>
<path d="M238.737 221.181L227.544 232.616L226.243 232.678L225.972 230.522C225.972 230.522 223.697 233.842 218.642 233.657C218.642 233.657 215.607 235.932 220.105 236.055C224.604 236.178 230.348 235.871 230.348 235.871C230.348 235.871 234.361 228.789 237.719 229.713V235.061H238.751V229.663C239.23 229.297 239.64 228.825 239.954 228.274C240.269 227.724 240.482 227.107 240.581 226.461C240.67 225.796 240.607 225.115 240.397 224.485C240.187 223.856 239.838 223.298 239.383 222.865C239.18 222.649 239.018 222.388 238.907 222.099C238.796 221.809 238.738 221.497 238.737 221.181Z" fill="#1D2366"/>
<path d="M265.052 214.789C264.33 217.714 264.723 219.361 265.217 220.245V220.263C265.851 221.354 266.292 222.575 266.515 223.857L266.559 224.134L261.466 232.555L258.702 233.786C258.702 233.786 254.258 232.065 255.069 231.572C255.273 231.452 255.591 230.812 255.954 229.928C257.04 227.265 258.539 222.351 258.539 222.351V222.311C258.696 220.282 258.946 218.259 259.223 216.245C259.72 212.622 258.808 203.726 258.808 203.726C258.808 203.726 258.482 192.91 257.776 190.45C257.457 189.199 257.246 187.917 257.144 186.62C256.997 185.081 256.964 183.812 256.964 183.812C256.964 183.812 259.891 179.194 265.255 184.181C265.684 184.579 266.062 185.044 266.377 185.561C270.082 191.54 267.099 204.712 267.099 204.712C267.099 204.712 266.352 209.503 265.052 214.789Z" fill="#FFB0B1"/>
<path opacity="0.1" d="M266.567 224.134L261.474 232.554L258.71 233.786C258.71 233.786 254.266 232.065 255.078 231.572C255.281 231.452 255.599 230.812 255.963 229.928C257.844 229.91 258.819 231.942 258.819 231.942L261.202 231.511C261.202 231.511 264.346 224.503 265.052 224.075C265.758 223.647 265.161 220.876 265.161 220.876V220.171C265.18 220.196 265.196 220.223 265.218 220.248V220.266C265.851 221.358 266.292 222.578 266.515 223.86L266.567 224.134Z" fill="black"/>
<path d="M258.982 232.124C258.982 232.124 257.624 229.297 255.023 230.341C255.023 230.341 253.56 233.728 252.097 234.276C250.633 234.824 251.122 236.671 254.429 235.997C257.736 235.323 262.72 234.765 262.72 234.765L262.937 231.32L266.298 226.464C266.298 226.464 268.302 224.405 265.321 220.35V221.055C265.321 221.055 265.918 223.826 265.212 224.254C264.506 224.682 261.373 231.692 261.373 231.692L258.982 232.124Z" fill="#1D2366"/>
<path opacity="0.1" d="M238.981 182.149C239.028 183.081 239.135 184.007 239.302 184.92C236.245 184.412 233.408 184.665 231.548 184.831V182.088L238.981 182.149Z" fill="black"/>
<path opacity="0.1" d="M266.678 186.327C266.678 186.327 262.334 186.568 257.154 186.617C257.008 185.077 256.975 183.809 256.975 183.809C256.975 183.809 259.902 179.19 265.266 184.178C265.695 184.576 266.073 185.041 266.387 185.558C266.472 185.82 266.569 186.077 266.678 186.327Z" fill="black"/>
<path d="M266.678 185.773C266.678 185.773 247.653 186.817 241.854 184.973C236.055 183.128 230.308 184.726 229.442 184.298C228.576 183.87 229.279 177.168 230.039 175.508C230.799 173.849 234.969 157.065 234.969 157.065L238.981 133.339L243.208 132.018L243.507 131.923L250.872 129.62L256.27 127.929C256.27 127.929 267.001 175.447 266.081 178.95C265.747 180.292 265.693 181.704 265.923 183.073C266.064 184.008 266.318 184.917 266.678 185.773Z" fill="#1D2366"/>
<path d="M224.995 117.113C224.995 117.113 221.194 121.732 224.071 124.305C226.949 126.879 228.842 124.552 228.842 124.552L224.995 117.113Z" fill="#C7DAF5"/>
<path opacity="0.1" d="M224.995 117.113C224.995 117.113 221.194 121.732 224.071 124.305C226.949 126.879 228.842 124.552 228.842 124.552L224.995 117.113Z" fill="black"/>
<path d="M255.702 86.7488C255.702 86.7488 255.257 87.2291 254.586 87.9373C253.631 88.9502 252.216 90.4312 250.962 91.672C249.225 93.387 247.791 94.6463 248.304 93.5717C248.817 92.4972 248.72 90.6252 248.464 88.8733C248.445 88.7563 248.429 88.6393 248.41 88.5253C248.199 87.2387 247.919 85.9678 247.571 84.7198C247.571 84.7198 250.378 80.6063 251.931 78.9838C252.51 78.368 252.914 78.1155 252.939 78.5435C252.966 79.1192 253.346 80.3908 253.818 81.7394C253.832 81.7825 253.845 81.8225 253.862 81.8656C254.177 82.7893 254.532 83.7376 254.844 84.5566C255.322 85.8128 255.702 86.7488 255.702 86.7488Z" fill="#FFB0B1"/>
<path opacity="0.1" d="M253.862 81.8655C253.598 83.4747 252.958 84.974 252.008 86.2067C251.059 87.4394 249.835 88.3603 248.464 88.8732C248.249 87.4677 247.95 86.0801 247.571 84.7197C247.571 84.7197 252.857 76.9762 252.939 78.5434C252.958 79.1376 253.37 80.4554 253.862 81.8655Z" fill="black"/>
<path opacity="0.1" d="M247.938 90.9423L248.622 89.8493C248.622 89.8493 249.075 92.9837 250.742 91.6012C252.409 90.2188 252.49 102.005 252.49 102.005L250.701 132.342L237.773 131.464L238.14 116.805L239.603 109.416L243.222 98.6735L245.375 95.1235L247.938 90.9423Z" fill="black"/>
<path d="M252.49 102.193L250.862 129.623L250.69 132.529L243.483 132.04L243.211 132.021L237.781 131.652L238.148 116.99L239.611 109.601L243.23 98.8582L245.383 95.3082L247.946 91.1117L248.63 90.0217C248.63 90.0217 249.083 93.1561 250.75 91.7736L250.786 91.7459C252.414 90.5759 252.49 102.193 252.49 102.193Z" fill="#1D2366"/>
<path d="M239.793 107.033C239.793 107.033 239.144 108.572 237.841 108.323C236.538 108.073 236.541 113.865 236.541 113.865C236.541 113.865 235.675 114.789 235.077 113.988C234.48 113.188 232.905 115.894 232.905 115.894L223.04 116.387C223.04 116.387 227.43 118.662 226.569 125.546C226.569 125.546 241.473 124.5 241.962 122.902C242.451 121.304 239.793 107.033 239.793 107.033Z" fill="white"/>
<path opacity="0.03" d="M239.793 107.033C239.793 107.033 239.144 108.572 237.841 108.323C236.538 108.073 236.541 113.865 236.541 113.865C236.541 113.865 235.675 114.789 235.077 113.988C234.48 113.188 232.905 115.894 232.905 115.894L223.04 116.387C223.04 116.387 227.43 118.662 226.569 125.546C226.569 125.546 241.473 124.5 241.962 122.902C242.451 121.304 239.793 107.033 239.793 107.033Z" fill="black"/>
<path d="M211.122 120.004L213.723 122.523L235.132 127.625L232.477 124.552L211.122 120.004Z" fill="white"/>
<path d="M247.978 91.9122C247.622 92.528 246.604 95.6808 245.755 98.4334C245.046 100.727 244.454 102.744 244.454 102.744C244.454 102.744 243.072 112.947 242.367 114.792C241.661 116.636 242.044 123.828 242.044 123.828L239.413 141.591C239.413 141.591 238.221 150.75 236.38 156.222C234.564 161.607 232.542 164.132 232.479 164.212C233.294 162.962 237.732 138.349 237.732 138.349L239.198 107.307C239.198 107.307 239.413 104.357 239.63 101.836C239.847 99.3139 244.245 95.8717 244.245 95.8717L248.486 89.0334C248.912 89.68 248.627 90.8069 247.978 91.9122Z" fill="white"/>
<path d="M236.921 131.806C236.921 131.806 230.676 131.498 227.652 127.378C224.628 123.259 234.643 125.734 234.643 125.734L237.246 126.412L236.921 131.806Z" fill="#FFB0B1"/>
<path opacity="0.1" d="M266.081 178.953C265.746 180.295 265.693 181.707 265.923 183.076C259.112 183.624 251.825 181.537 251.825 181.537C250.468 182.953 246.892 185.04 246.892 185.04L244.943 157.638C243.697 153.943 243.208 134.586 243.208 134.586C243.208 134.586 243.32 133.573 243.48 132.055C243.48 132.018 243.48 131.978 243.493 131.941C243.979 127.702 244.943 119.743 245.415 118.668C246.067 117.19 243.412 113.258 243.412 113.258L244.62 101.574L244.767 100.164C247.313 98.8736 249.265 94.754 249.265 94.754L250.764 91.7766C252.392 90.5912 252.477 102.208 252.477 102.208L250.848 129.638L256.245 127.948C256.245 127.948 267.001 175.45 266.081 178.953Z" fill="black"/>
<path d="M273.071 180.847C265.646 185.028 252.151 181.155 252.151 181.155C250.794 182.571 247.218 184.659 247.218 184.659L245.266 157.256C244.023 153.562 243.534 134.204 243.534 134.204C243.534 134.204 245.103 119.761 245.755 118.286C245.945 117.855 245.853 117.215 245.627 116.525C244.519 113.242 244.112 109.709 244.438 106.214L244.959 101.192L245.103 99.785C247.652 98.4919 249.604 94.3723 249.604 94.3723L250.962 91.6751L253.459 86.7057L254.643 84.3535L254.844 84.5597L256.378 86.1362C256.378 86.1362 257.029 86.7519 258.007 87.6756C260.133 89.7077 263.806 93.2854 265.701 95.4745C267.368 97.4019 267.894 104.899 268.046 110.543C268.147 114.259 268.087 117.172 268.087 117.172C266.407 120.309 270.802 145.498 270.802 145.498C271.825 150.366 273.071 180.847 273.071 180.847Z" fill="white"/>
<path opacity="0.03" d="M258.819 94.3106C258.819 94.3106 253.723 105.312 254.315 109.493C254.907 113.674 256.59 118.406 255.778 119.512C255.499 119.93 255.139 120.27 254.725 120.505C254.311 120.739 253.854 120.862 253.392 120.863C252.577 120.925 250.405 122.646 250.405 122.831C250.405 123.015 248.399 123.015 246.605 123.878C244.81 124.74 242.16 125.229 242.16 125.229C242.16 125.229 237.002 125.044 236.522 125.599C236.041 126.153 235.547 129.469 236.576 132.114C237.605 134.758 238.748 136.732 239.611 137.092C240.475 137.453 245.953 135.371 250.397 134.879C254.841 134.386 259.666 130.393 259.666 130.393C259.666 130.393 264.979 128.237 265.91 124.613C266.841 120.989 264.772 101.072 264.772 101.072C264.772 101.072 263.209 91.7889 258.819 94.3106Z" fill="black"/>
<path opacity="0.03" d="M258.167 93.3869C258.167 93.3869 253.071 104.391 253.668 108.569C254.266 112.747 255.944 117.483 255.129 118.591C254.851 119.01 254.491 119.351 254.078 119.585C253.664 119.82 253.208 119.942 252.745 119.943C251.931 120.004 249.759 121.725 249.759 121.91C249.759 122.095 247.753 122.095 245.958 122.954C244.164 123.813 241.514 124.305 241.514 124.305C241.514 124.305 236.356 124.121 235.878 124.675C235.4 125.229 234.901 128.548 235.932 131.19C236.964 133.832 238.104 135.808 238.968 136.169C239.831 136.529 245.31 134.447 249.754 133.958C254.198 133.468 259.022 129.469 259.022 129.469C259.022 129.469 264.332 127.314 265.253 123.693C266.173 120.072 264.115 100.148 264.115 100.148C264.115 100.148 262.557 90.8683 258.167 93.3869Z" fill="black"/>
<path d="M258.658 93.7564C258.658 93.7564 253.563 104.761 254.16 108.939C254.757 113.117 256.435 117.852 255.623 118.957C255.345 119.378 254.985 119.719 254.571 119.954C254.157 120.189 253.7 120.312 253.237 120.312C252.422 120.374 250.25 122.095 250.25 122.277C250.25 122.458 248.247 122.461 246.45 123.323C244.653 124.185 242.006 124.675 242.006 124.675C242.006 124.675 236.847 124.49 236.367 125.044C235.886 125.599 235.392 128.918 236.421 131.56C237.45 134.201 238.593 136.178 239.456 136.538C240.32 136.898 245.798 134.817 250.242 134.324C254.687 133.832 259.511 129.838 259.511 129.838C259.511 129.838 264.824 127.683 265.755 124.059C266.686 120.435 264.631 100.518 264.631 100.518C264.631 100.518 263.045 91.2502 258.658 93.7564Z" fill="white"/>
<path opacity="0.1" d="M258.547 123.271C258.547 123.271 254.475 122.347 255.892 123.887C257.309 125.426 257.301 126.775 259.036 126.713C260.771 126.652 258.547 123.271 258.547 123.271Z" fill="black"/>
<path opacity="0.1" d="M265.429 156.394C265.429 156.394 263.589 157.807 267.11 161.065C270.631 164.322 265.429 156.394 265.429 156.394Z" fill="black"/>
<path opacity="0.1" d="M261.916 168.011C261.916 168.196 261.265 174.785 263.703 176.432C266.141 178.079 261.916 168.011 261.916 168.011Z" fill="black"/>
<path d="M223.208 116.371C221.243 116.448 216.997 117.129 219.198 121.787C221.145 125.91 224.416 123.154 226.257 121.063C225.808 119.114 224.717 117.435 223.208 116.371Z" fill="#FFB0B1"/>
<path d="M226.281 121.027L226.363 120.931L226.281 121.027Z" fill="#FFB0B1"/>
<path opacity="0.1" d="M258.007 87.8634C255.922 89.4798 254.173 90.8438 253.831 91.127C252.898 91.9122 251.117 96.5213 249.968 98.8736C249.053 100.767 246.081 101.254 244.959 101.374L245.103 99.9666C247.652 98.6735 249.604 94.5539 249.604 94.5539L254.643 84.535L256.378 86.3239C256.378 86.3239 257.029 86.9397 258.007 87.8634Z" fill="black"/>
<path d="M258.007 87.6787C255.922 89.2951 254.173 90.6591 253.831 90.9454C252.898 91.7275 251.117 96.3366 249.968 98.6889C249.053 100.582 246.081 101.069 244.959 101.189L245.103 99.7819C247.652 98.4888 249.604 94.3692 249.604 94.3692L254.643 84.3503L256.378 86.133C256.378 86.133 257.029 86.7427 258.007 87.6787Z" fill="#DCE7FF"/>
<path d="M253.994 79.8335C253.996 81.6817 253.501 83.4867 252.577 85.0092C251.486 86.8092 249.862 88.1059 248 88.6641C246.137 89.2222 244.16 89.0048 242.427 88.0512C240.694 87.0976 239.32 85.4711 238.554 83.4668C237.788 81.4624 237.681 79.2131 238.252 77.1269C238.824 75.0406 240.035 73.2557 241.668 72.096C243.3 70.9363 245.245 70.4787 247.149 70.8061C249.054 71.1336 250.791 72.2244 252.047 73.8807C253.303 75.537 253.994 77.649 253.994 79.8335Z" fill="#FFB0B1"/>
<path opacity="0.1" d="M268.046 110.546C266.944 109.777 266.046 108.683 265.448 107.381C264.995 106.365 264.694 105.191 263.92 104.471C263.222 103.824 262.291 103.667 261.422 103.378C258.566 102.42 256.172 99.4647 256.082 96.0902C256.039 94.5015 256.476 92.9158 256.278 91.3425C256.165 90.452 255.853 89.6093 255.371 88.8947C255.132 88.553 254.869 88.2328 254.586 87.9372C254.206 87.5308 253.807 87.1367 253.46 86.7056C253.241 86.4387 253.049 86.1443 252.89 85.8281C252.76 85.5694 252.656 85.2959 252.577 85.0122C252.034 83.1279 252.528 80.8926 251.931 78.9867L251.899 78.8821C251.673 78.2047 251.214 77.5273 250.576 77.475C249.938 77.4226 249.393 78.023 248.785 78.2909C247.511 78.8513 246.138 77.8968 245.076 76.9239C244.015 75.9509 242.817 74.8394 241.468 75.0549C240.575 75.1997 239.869 75.8893 239.047 76.2465C238.861 76.328 238.669 76.3909 238.474 76.4343C239.17 74.4654 240.449 72.8328 242.091 71.8172C243.733 70.8016 245.636 70.4662 247.473 70.8688C249.309 71.2714 250.965 72.3867 252.155 74.0232C253.345 75.6597 253.995 77.7152 253.994 79.8365C253.995 80.4771 253.936 81.116 253.818 81.7424C253.832 81.7855 253.845 81.8255 253.861 81.8686C254.176 82.7923 254.532 83.7406 254.844 84.5596L256.378 86.136C256.378 86.136 257.03 86.7518 258.007 87.6755C260.133 89.7076 263.806 93.2853 265.701 95.4744C267.368 97.408 267.889 104.902 268.046 110.546Z" fill="black"/>
<path d="M238.952 70.6213C239.34 69.7253 239.533 68.7216 239.997 67.8718C240.678 66.6402 241.867 65.852 243.089 65.3748C246.279 64.1278 253.02 62.3174 255.034 65.3748C255.431 65.9906 255.759 66.6741 256.308 67.099C256.726 67.4223 257.231 67.5608 257.689 67.8041C258.974 68.4876 259.793 69.9778 260.231 71.4988C260.668 73.0198 260.798 74.6516 261.118 76.2188C261.528 78.2293 262.248 80.1351 262.964 82.0287C263.809 84.264 264.705 86.5824 266.333 88.1619C268.557 90.3172 269.048 93.3684 271.112 95.733C273.555 98.541 273.476 103.175 272.216 106.854C272.051 107.337 271.864 107.842 271.929 108.357C271.994 108.871 272.331 109.339 272.648 109.748L273.984 111.457C270.824 112.322 267.248 110.45 265.777 107.165C265.324 106.149 265.022 104.979 264.246 104.255C263.551 103.609 262.617 103.455 261.751 103.166C258.895 102.205 256.5 99.246 256.411 95.8715C256.367 94.2859 256.804 92.7002 256.606 91.13C256.496 90.2336 256.183 89.3849 255.697 88.6669C254.95 87.5615 253.824 86.8195 253.215 85.5879C252.186 83.5281 252.968 80.8525 252.227 78.6419C251.999 77.9645 251.543 77.2871 250.905 77.2348C250.267 77.1825 249.721 77.7829 249.111 78.0507C247.84 78.6111 246.466 77.6597 245.405 76.6837C244.343 75.7077 243.146 74.5992 241.794 74.8178C240.901 74.9595 240.198 75.6492 239.375 76.0094C238.767 76.2742 237.535 76.5113 237.002 75.9293C235.878 74.7563 238.482 71.7174 238.952 70.6213Z" fill="#591D4B"/>
<path opacity="0.1" d="M266.532 106.149C266.076 105.133 265.777 103.963 265.001 103.243C264.306 102.596 263.372 102.439 262.503 102.15C259.65 101.192 257.255 98.2332 257.163 94.8587C257.119 93.273 257.556 91.6843 257.361 90.1141C257.247 89.2234 256.934 88.3807 256.452 87.6663C255.702 86.561 254.576 85.819 253.97 84.5874C252.941 82.5307 253.723 79.8551 252.979 77.6413C252.754 76.967 252.295 76.2897 251.66 76.2343C251.025 76.1788 250.473 76.7854 249.865 77.0533C248.595 77.6136 247.218 76.6591 246.16 75.6862C245.101 74.7133 243.898 73.6018 242.549 73.8173C241.656 73.962 240.95 74.6517 240.13 75.0088C239.522 75.2736 238.287 75.5138 237.754 74.9319C236.636 73.7003 239.239 70.6675 239.706 69.5776C240.095 68.6786 240.287 67.6779 240.754 66.8281C240.779 66.7819 240.806 66.7358 240.833 66.6896C240.484 67.0177 240.182 67.4064 239.94 67.8411C239.476 68.6909 239.283 69.6884 238.895 70.5906C238.425 71.6805 235.822 74.7225 236.943 75.9448C237.486 76.5298 238.707 76.2897 239.316 76.0249C240.13 75.6646 240.841 74.975 241.734 74.8333C243.092 74.6147 244.286 75.7262 245.345 76.6992C246.404 77.6721 247.789 78.6266 249.054 78.0662C249.662 77.7983 250.194 77.1949 250.845 77.2503C251.497 77.3057 251.931 77.98 252.168 78.6574C252.909 80.868 252.127 83.5436 253.156 85.6034C253.764 86.8135 254.891 87.5709 255.637 88.6824C256.123 89.4004 256.436 90.2491 256.547 91.1455C256.745 92.7158 256.308 94.3014 256.351 95.8871C256.441 99.2739 258.835 102.22 261.691 103.181C262.552 103.47 263.491 103.624 264.186 104.271C264.965 104.995 265.272 106.165 265.717 107.181C267.189 110.466 270.764 112.338 273.924 111.473L273.294 110.666C270.555 110.712 267.783 108.945 266.532 106.149Z" fill="black"/>
<path opacity="0.1" d="M247.815 92.0969C247.46 92.7126 246.442 95.8655 245.592 98.618C244.797 98.267 244.075 96.0286 244.075 96.0286L248.315 89.1873C248.749 89.8646 248.464 90.9884 247.815 92.0969Z" fill="black"/>
<path d="M247.978 91.9123C247.623 92.528 246.605 95.6809 245.755 98.4334C244.959 98.0855 244.237 95.8441 244.237 95.8441L248.478 89.0057C248.912 89.68 248.627 90.8069 247.978 91.9123Z" fill="#DCE7FF"/>
<path d="M223.322 123.366L220.971 114.958C220.943 114.859 220.933 114.756 220.941 114.653C220.948 114.55 220.974 114.449 221.015 114.358C221.057 114.266 221.115 114.184 221.185 114.118C221.254 114.051 221.335 114.001 221.422 113.97C221.597 113.908 221.786 113.927 221.949 114.022C222.112 114.118 222.234 114.283 222.291 114.481L224.642 122.88L224.408 124.638L223.322 123.366Z" fill="#BE8B87"/>
<path opacity="0.1" d="M221.194 114.219C221.369 114.156 221.559 114.175 221.723 114.27C221.886 114.366 222.009 114.531 222.065 114.73L224.416 123.129L224.24 124.447L224.411 124.65L224.644 122.892L222.28 114.493C222.224 114.295 222.101 114.13 221.938 114.035C221.775 113.939 221.586 113.92 221.411 113.982C221.264 114.036 221.137 114.144 221.05 114.29C221.096 114.262 221.144 114.238 221.194 114.219Z" fill="white"/>
<path d="M223.322 123.366L224.642 122.892L224.449 124.333L224.408 124.65L224.023 124.195L223.322 123.366Z" fill="#EFC8C4"/>
<path d="M224.023 124.195C224.046 124.162 224.074 124.135 224.107 124.115C224.126 124.101 224.148 124.094 224.171 124.094C224.193 124.094 224.215 124.101 224.235 124.115C224.253 124.14 224.269 124.168 224.281 124.198C224.299 124.232 224.323 124.261 224.352 124.283C224.381 124.304 224.414 124.319 224.449 124.324L224.408 124.632L224.023 124.195Z" fill="#727A9C"/>
<path d="M220.958 117.944C220.958 117.944 225.673 117.914 224.563 120.189C223.453 122.464 221.718 122.738 221.718 122.738L220.958 117.944Z" fill="#FFB0B1"/>
<path d="M191.629 15.8318H191.426C183.324 15.8318 176.16 20.6935 172.039 27.8674C167.918 20.6935 160.753 15.8318 152.652 15.8318H152.449C146.369 15.8976 140.558 18.6817 136.278 23.5793C131.998 28.4768 129.596 35.0921 129.592 41.9873C129.592 50.5498 132.899 62.6993 139.347 72.6966C151.632 91.7459 172.039 108.412 172.039 108.412C172.039 108.412 192.446 91.749 204.728 72.6966C211.179 62.6993 214.483 50.5498 214.483 41.9873C214.479 35.0926 212.077 28.4778 207.798 23.5803C203.519 18.6829 197.708 15.8984 191.629 15.8318ZM188.716 74.1621C187.794 74.1582 186.894 73.8379 186.134 73.2433C185.375 72.6488 184.792 71.8078 184.462 70.8307H179.619C179.3 70.8285 178.989 70.7133 178.731 70.5014C178.473 70.2894 178.279 69.9912 178.177 69.6484L176.689 64.5651L171.982 83.2204C171.89 83.5795 171.698 83.8952 171.435 84.12C171.172 84.3449 170.851 84.4667 170.521 84.4673H170.426C170.082 84.4485 169.754 84.2963 169.498 84.0363C169.241 83.7763 169.07 83.4241 169.015 83.0387L164.163 49.9464L160.618 69.5284C160.536 69.9003 160.347 70.2307 160.081 70.4668C159.815 70.7029 159.487 70.831 159.149 70.8307H152.327C152.122 70.8406 151.918 70.8034 151.726 70.7214C151.535 70.6394 151.36 70.5143 151.212 70.3536C151.064 70.193 150.947 70.0001 150.866 69.7866C150.786 69.5731 150.745 69.3433 150.745 69.1112C150.745 68.879 150.786 68.6493 150.866 68.4357C150.947 68.2222 151.064 68.0293 151.212 67.8687C151.36 67.708 151.535 67.583 151.726 67.501C151.918 67.419 152.122 67.3818 152.327 67.3916H157.954L162.977 41.0637C163.059 40.6744 163.258 40.3297 163.54 40.0885C163.822 39.8473 164.169 39.7246 164.521 39.7413C164.874 39.7581 165.211 39.9132 165.474 40.1802C165.737 40.4473 165.91 40.8096 165.963 41.2053L170.918 74.9627L175.137 58.2718C175.224 57.9203 175.41 57.6104 175.666 57.3884C175.922 57.1665 176.234 57.0443 176.556 57.0402H176.586C176.905 57.0403 177.216 57.1547 177.475 57.367C177.733 57.5793 177.926 57.8787 178.025 58.2225L180.716 67.4008H184.402C184.664 66.4977 185.141 65.6942 185.781 65.0791C186.42 64.464 187.197 64.0612 188.025 63.9151C188.854 63.7691 189.702 63.8855 190.475 64.2514C191.249 64.6174 191.919 65.2187 192.41 65.989C192.902 66.7593 193.196 67.6686 193.261 68.6166C193.325 69.5646 193.158 70.5145 192.776 71.3612C192.395 72.208 191.815 72.9189 191.1 73.4153C190.385 73.9117 189.563 74.1744 188.724 74.1745L188.716 74.1621Z" fill="#4736B9"/>
</g>
<defs>
<linearGradient id="paint0_linear" x1="96.7377" y1="238.577" x2="96.7377" y2="49.1181" gradientUnits="userSpaceOnUse">
<stop stop-color="#808080" stop-opacity="0.25"/>
<stop offset="0.54" stop-color="#808080" stop-opacity="0.12"/>
<stop offset="1" stop-color="#808080" stop-opacity="0.1"/>
</linearGradient>
<linearGradient id="paint1_linear" x1="60599.3" y1="142949" x2="60599.3" y2="45698.3" gradientUnits="userSpaceOnUse">
<stop stop-color="#808080" stop-opacity="0.25"/>
<stop offset="0.54" stop-color="#808080" stop-opacity="0.12"/>
<stop offset="1" stop-color="#808080" stop-opacity="0.1"/>
</linearGradient>
<clipPath id="clip0">
<rect width="300" height="241" fill="white"/>
</clipPath>
</defs>
</svg>
